<svg width="633" height="579" viewBox="0 0 633 579" fill="none" xmlns="http://www.w3.org/2000/svg">
<mask id="mask0_3813_19249" style="mask-type:alpha" maskUnits="userSpaceOnUse" x="1" y="1" width="601" height="575">
<rect opacity="0.6" x="1.5" y="1.5" width="600" height="574" rx="9.5" fill="#684A95" stroke="#282161"/>
</mask>
<g mask="url(#mask0_3813_19249)">
<g opacity="0.35" style="mix-blend-mode:hard-light">
<rect x="-1363.27" y="-679.18" width="2226.7" height="1902.17" fill="url(#paint0_radial_3813_19249)"/>
</g>
<g opacity="0.4">
<rect x="-1316.69" y="-21.085" width="2177.12" height="1893.15" fill="url(#paint1_linear_3813_19249)"/>
<g opacity="0.5">
<path d="M-110.974 1163.08C-376.168 1163.08 -591.934 947.336 -591.934 682.142C-591.934 416.949 -376.168 201.183 -110.974 201.183C154.219 201.183 369.969 416.932 369.969 682.142C369.969 947.353 154.219 1163.08 -110.974 1163.08Z" stroke="#8E22E6" stroke-width="0.87" stroke-miterlimit="10"/>
<path d="M-110.975 1158.8C-373.817 1158.8 -587.651 944.968 -587.651 682.142C-587.651 419.317 -373.8 205.465 -110.975 205.465C151.851 205.465 365.685 419.3 365.685 682.142C365.685 944.985 151.851 1158.8 -110.975 1158.8Z" stroke="#8E22E6" stroke-width="0.87" stroke-miterlimit="10"/>
<path d="M-110.975 1154.82C-371.617 1154.82 -583.671 942.768 -583.671 682.125C-583.671 421.483 -371.617 209.446 -110.975 209.446C149.668 209.446 361.722 421.5 361.722 682.142C361.722 942.784 149.668 1154.84 -110.975 1154.84V1154.82Z" stroke="#8E22E6" stroke-width="0.87" stroke-miterlimit="10"/>
<path d="M-110.974 1150.54C-369.248 1150.54 -579.388 940.416 -579.388 682.142C-579.388 423.868 -369.248 213.729 -110.974 213.729C147.3 213.729 357.423 423.851 357.423 682.142C357.423 940.433 147.3 1150.54 -110.974 1150.54Z" stroke="#8E22E6" stroke-width="0.87" stroke-miterlimit="10"/>
<path d="M-110.974 1146.56C-367.065 1146.56 -575.407 938.216 -575.407 682.126C-575.407 426.035 -367.065 217.692 -110.974 217.692C145.117 217.692 353.459 426.035 353.459 682.126C353.459 938.216 145.117 1146.56 -110.974 1146.56Z" stroke="#8E22E6" stroke-width="0.87" stroke-miterlimit="10"/>
<path d="M-110.975 1142.28C-364.697 1142.28 -571.125 935.848 -571.125 682.125C-571.125 428.403 -364.697 221.992 -110.975 221.992C142.748 221.992 349.176 428.42 349.176 682.142C349.176 935.865 142.748 1142.29 -110.975 1142.29V1142.28Z" stroke="#8E22E6" stroke-width="0.87" stroke-miterlimit="10"/>
<path d="M-110.975 1138.31C-362.514 1138.31 -567.145 933.682 -567.145 682.142C-567.145 430.603 -362.514 225.955 -110.975 225.955C140.565 225.955 345.195 430.586 345.195 682.126C345.195 933.665 140.565 1138.3 -110.975 1138.3V1138.31Z" stroke="#8E22E6" stroke-width="0.87" stroke-miterlimit="10"/>
<path d="M-110.974 1134.03C-360.145 1134.03 -562.861 931.314 -562.861 682.142C-562.861 432.971 -360.145 230.238 -110.974 230.238C138.197 230.238 340.913 432.954 340.913 682.126C340.913 931.297 138.197 1134.01 -110.974 1134.01V1134.03Z" stroke="#8E22E6" stroke-width="0.87" stroke-miterlimit="10"/>
<path d="M-110.975 1130.05C-357.963 1130.05 -558.898 929.113 -558.898 682.142C-558.898 435.171 -357.963 234.219 -110.975 234.219C136.013 234.219 336.932 435.154 336.932 682.142C336.932 929.13 135.996 1130.05 -110.975 1130.05Z" stroke="#8E22E6" stroke-width="0.87" stroke-miterlimit="10"/>
<path d="M-110.975 1125.77C-355.594 1125.77 -554.599 926.762 -554.599 682.142C-554.599 437.523 -355.594 238.501 -110.975 238.501C133.645 238.501 332.65 437.523 332.65 682.125C332.65 926.728 133.645 1125.75 -110.975 1125.75V1125.77Z" stroke="#8E22E6" stroke-width="0.87" stroke-miterlimit="10"/>
<path d="M-110.974 1121.79C-353.411 1121.79 -550.635 924.562 -550.635 682.126C-550.635 439.689 -353.394 242.482 -110.974 242.482C131.445 242.482 328.686 439.706 328.686 682.142C328.686 924.579 131.462 1121.8 -110.974 1121.8V1121.79Z" stroke="#8E22E6" stroke-width="0.87" stroke-miterlimit="10"/>
<path d="M-110.975 1117.5C-351.043 1117.5 -546.353 922.194 -546.353 682.142C-546.353 442.091 -351.043 246.764 -110.975 246.764C129.093 246.764 324.386 442.074 324.386 682.142C324.386 922.211 129.077 1117.5 -110.975 1117.5Z" stroke="#8E22E6" stroke-width="0.87" stroke-miterlimit="10"/>
<path d="M-110.975 1113.52C-348.843 1113.52 -542.372 919.994 -542.372 682.125C-542.372 444.257 -348.843 250.728 -110.975 250.728C126.893 250.728 320.423 444.257 320.423 682.125C320.423 919.994 126.893 1113.52 -110.975 1113.52Z" stroke="#8E22E6" stroke-width="0.87" stroke-miterlimit="10"/>
<path d="M-110.974 1109.24C-346.491 1109.24 -538.089 917.642 -538.089 682.125C-538.089 446.609 -346.491 255.011 -110.974 255.011C124.543 255.011 316.14 446.609 316.14 682.125C316.14 917.642 124.543 1109.24 -110.974 1109.24Z" stroke="#8E22E6" stroke-width="0.87" stroke-miterlimit="10"/>
<path d="M-110.974 1105.28C-344.291 1105.28 -534.108 915.459 -534.108 682.142C-534.108 448.826 -344.291 259.008 -110.974 259.008C122.342 259.008 312.16 448.826 312.16 682.142C312.16 915.459 122.342 1105.28 -110.974 1105.28Z" stroke="#8E22E6" stroke-width="0.87" stroke-miterlimit="10"/>
<path d="M-110.975 1100.99C-341.94 1100.99 -529.826 913.091 -529.826 682.142C-529.826 451.194 -341.923 263.291 -110.975 263.291C119.974 263.291 307.877 451.194 307.877 682.142C307.877 913.091 119.974 1100.99 -110.975 1100.99Z" stroke="#8E22E6" stroke-width="0.87" stroke-miterlimit="10"/>
<path d="M-110.974 1097.01C-339.74 1097.01 -525.862 910.908 -525.862 682.142C-525.862 453.377 -339.74 267.254 -110.974 267.254C117.791 267.254 303.897 453.377 303.897 682.142C303.897 910.908 117.791 1097.01 -110.974 1097.01Z" stroke="#8E22E6" stroke-width="0.87" stroke-miterlimit="10"/>
<path d="M-110.974 1092.73C-337.371 1092.73 -521.562 908.539 -521.562 682.142C-521.562 455.745 -337.371 271.554 -110.974 271.554C115.423 271.554 299.614 455.745 299.614 682.142C299.614 908.539 115.423 1092.73 -110.974 1092.73Z" stroke="#8E22E6" stroke-width="0.87" stroke-miterlimit="10"/>
<path d="M-110.974 1088.75C-335.188 1088.75 -517.599 906.339 -517.599 682.125C-517.599 457.912 -335.188 275.501 -110.974 275.501C113.24 275.501 295.651 457.912 295.651 682.125C295.651 906.339 113.24 1088.75 -110.974 1088.75Z" stroke="#8E22E6" stroke-width="0.87" stroke-miterlimit="10"/>
<path d="M-110.975 1084.47C-332.82 1084.47 -513.316 903.988 -513.316 682.142C-513.316 460.297 -332.837 279.8 -110.975 279.8C110.888 279.8 291.351 460.28 291.351 682.142C291.351 904.005 110.871 1084.47 -110.975 1084.47Z" stroke="#8E22E6" stroke-width="0.87" stroke-miterlimit="10"/>
<path d="M-110.974 1080.49C-330.637 1080.49 -509.336 901.788 -509.336 682.125C-509.336 462.463 -330.637 283.764 -110.974 283.764C108.688 283.764 287.387 462.463 287.387 682.125C287.387 901.788 108.688 1080.49 -110.974 1080.49Z" stroke="#8E22E6" stroke-width="0.87" stroke-miterlimit="10"/>
<path d="M-110.974 1076.2C-328.268 1076.2 -505.053 899.42 -505.053 682.126C-505.053 464.831 -328.268 288.047 -110.974 288.047C106.32 288.047 283.105 464.831 283.105 682.126C283.105 899.42 106.32 1076.2 -110.974 1076.2Z" stroke="#8E22E6" stroke-width="0.87" stroke-miterlimit="10"/>
<path d="M-110.974 1072.24C-326.085 1072.24 -501.072 897.253 -501.072 682.142C-501.072 467.031 -326.068 292.044 -110.974 292.044C104.12 292.044 279.124 467.048 279.124 682.142C279.124 897.236 104.137 1072.24 -110.974 1072.24Z" stroke="#8E22E6" stroke-width="0.87" stroke-miterlimit="10"/>
<path d="M-110.974 1067.96C-323.717 1067.96 -496.79 894.885 -496.79 682.142C-496.79 469.4 -323.717 296.327 -110.974 296.327C101.768 296.327 274.841 469.4 274.841 682.142C274.841 894.885 101.768 1067.96 -110.974 1067.96Z" stroke="#8E22E6" stroke-width="0.87" stroke-miterlimit="10"/>
<path d="M-110.974 1063.98C-321.534 1063.98 -492.826 892.685 -492.826 682.142C-492.826 471.6 -321.534 300.29 -110.974 300.29C99.5851 300.29 270.861 471.583 270.861 682.142C270.861 892.702 99.5683 1063.98 -110.974 1063.98Z" stroke="#8E22E6" stroke-width="0.87" stroke-miterlimit="10"/>
<path d="M-110.975 1059.69C-319.166 1059.69 -488.527 890.317 -488.527 682.142C-488.527 473.968 -319.149 304.59 -110.975 304.59C97.1995 304.59 266.577 473.968 266.577 682.142C266.577 890.317 97.1995 1059.69 -110.975 1059.69Z" stroke="#8E22E6" stroke-width="0.87" stroke-miterlimit="10"/>
<path d="M-110.975 1055.71C-316.966 1055.71 -484.563 888.133 -484.563 682.142C-484.563 476.151 -316.983 308.553 -110.975 308.553C95.0333 308.553 262.597 476.134 262.597 682.142C262.597 888.15 95.0165 1055.71 -110.975 1055.71Z" stroke="#8E22E6" stroke-width="0.87" stroke-miterlimit="10"/>
<path d="M-110.974 1051.43C-314.614 1051.43 -480.28 885.765 -480.28 682.142C-480.28 478.519 -314.614 312.836 -110.974 312.836C92.6656 312.836 258.315 478.502 258.315 682.142C258.315 885.782 92.6488 1051.43 -110.974 1051.43Z" stroke="#8E22E6" stroke-width="0.87" stroke-miterlimit="10"/>
<path d="M-110.974 1047.45C-312.414 1047.45 -476.3 883.565 -476.3 682.126C-476.3 480.686 -312.414 316.8 -110.974 316.8C90.4655 316.8 254.352 480.686 254.352 682.126C254.352 883.565 90.4655 1047.45 -110.974 1047.45Z" stroke="#8E22E6" stroke-width="0.87" stroke-miterlimit="10"/>
<path d="M-110.975 1043.17C-310.046 1043.17 -472.018 881.214 -472.018 682.125C-472.018 483.037 -310.046 321.083 -110.975 321.083C88.0969 321.083 250.068 483.054 250.068 682.125C250.068 881.197 88.1137 1043.17 -110.975 1043.17Z" stroke="#8E22E6" stroke-width="0.87" stroke-miterlimit="10"/>
<path d="M-110.975 1039.2C-307.863 1039.2 -468.037 879.031 -468.037 682.142C-468.037 485.254 -307.863 325.08 -110.975 325.08C85.9136 325.08 246.088 485.254 246.088 682.142C246.088 879.031 85.9136 1039.2 -110.975 1039.2Z" stroke="#8E22E6" stroke-width="0.87" stroke-miterlimit="10"/>
<path d="M-110.974 1034.92C-305.494 1034.92 -463.754 876.662 -463.754 682.142C-463.754 487.622 -305.494 329.362 -110.974 329.362C83.5459 329.362 241.806 487.622 241.806 682.142C241.806 876.662 83.5459 1034.92 -110.974 1034.92Z" stroke="#8E22E6" stroke-width="0.87" stroke-miterlimit="10"/>
<path d="M-110.975 1030.94C-303.312 1030.94 -459.791 874.462 -459.791 682.142C-459.791 489.822 -303.312 333.326 -110.975 333.326C81.3619 333.326 237.824 489.806 237.824 682.142C237.824 874.479 81.3451 1030.94 -110.975 1030.94Z" stroke="#8E22E6" stroke-width="0.87" stroke-miterlimit="10"/>
<path d="M-110.975 1026.66C-300.943 1026.66 -455.491 872.111 -455.491 682.142C-455.491 492.174 -300.943 337.626 -110.975 337.626C78.9941 337.626 233.542 492.174 233.542 682.142C233.542 872.111 78.9941 1026.66 -110.975 1026.66Z" stroke="#8E22E6" stroke-width="0.87" stroke-miterlimit="10"/>
<path d="M-110.974 1022.68C-298.76 1022.68 -451.527 869.911 -451.527 682.142C-451.527 494.374 -298.76 341.589 -110.974 341.589C76.8109 341.589 229.562 494.357 229.562 682.142C229.562 869.928 76.7942 1022.68 -110.974 1022.68Z" stroke="#8E22E6" stroke-width="0.87" stroke-miterlimit="10"/>
<path d="M-110.975 1018.4C-296.392 1018.4 -447.245 867.543 -447.245 682.142C-447.245 496.742 -296.392 345.872 -110.975 345.872C74.4423 345.872 225.279 496.725 225.279 682.142C225.279 867.559 74.4255 1018.4 -110.975 1018.4Z" stroke="#8E22E6" stroke-width="0.87" stroke-miterlimit="10"/>
<path d="M-110.975 1014.42C-294.192 1014.42 -443.265 865.359 -443.265 682.125C-443.265 498.892 -294.192 349.836 -110.975 349.836C72.2422 349.836 221.315 498.908 221.315 682.125C221.315 865.343 72.259 1014.42 -110.975 1014.42Z" stroke="#8E22E6" stroke-width="0.87" stroke-miterlimit="10"/>
<path d="M-110.974 1010.13C-291.84 1010.13 -438.981 862.991 -438.981 682.125C-438.981 501.26 -291.84 354.118 -110.974 354.118C69.8914 354.118 217.033 501.26 217.033 682.125C217.033 862.991 69.8914 1010.13 -110.974 1010.13Z" stroke="#8E22E6" stroke-width="0.87" stroke-miterlimit="10"/>
<path d="M-110.974 1006.17C-289.64 1006.17 -435.001 860.808 -435.001 682.142C-435.001 503.477 -289.64 358.116 -110.974 358.116C67.6912 358.116 213.052 503.477 213.052 682.142C213.052 860.808 67.6912 1006.17 -110.974 1006.17Z" stroke="#8E22E6" stroke-width="0.87" stroke-miterlimit="10"/>
<path d="M-110.975 1001.87C-287.289 1001.87 -430.719 858.44 -430.719 682.126C-430.719 505.811 -287.272 362.382 -110.975 362.382C65.3227 362.382 208.769 505.828 208.769 682.126C208.769 858.423 65.3395 1001.87 -110.975 1001.87Z" stroke="#8E22E6" stroke-width="0.87" stroke-miterlimit="10"/>
<path d="M-110.975 997.906C-285.089 997.906 -426.755 856.256 -426.755 682.142C-426.755 508.028 -285.106 366.362 -110.975 366.362C63.1563 366.362 204.789 508.011 204.789 682.142C204.789 856.273 63.1395 997.906 -110.975 997.906Z" stroke="#8E22E6" stroke-width="0.87" stroke-miterlimit="10"/>
<path d="M-110.974 993.623C-282.72 993.623 -422.455 853.888 -422.455 682.142C-422.455 510.396 -282.72 370.661 -110.974 370.661C60.7717 370.661 200.506 510.396 200.506 682.142C200.506 853.888 60.7717 993.623 -110.974 993.623Z" stroke="#8E22E6" stroke-width="0.87" stroke-miterlimit="10"/>
<path d="M-110.974 989.643C-280.537 989.643 -418.491 851.705 -418.491 682.142C-418.491 512.58 -280.537 374.625 -110.974 374.625C58.5886 374.625 196.526 512.58 196.526 682.142C196.526 851.705 58.5886 989.643 -110.974 989.643Z" stroke="#8E22E6" stroke-width="0.87" stroke-miterlimit="10"/>
<path d="M-110.975 985.36C-278.169 985.36 -414.209 849.337 -414.209 682.142C-414.209 514.948 -278.186 378.908 -110.975 378.908C56.2368 378.908 192.243 514.931 192.243 682.142C192.243 849.354 56.22 985.36 -110.975 985.36Z" stroke="#8E22E6" stroke-width="0.87" stroke-miterlimit="10"/>
<path d="M-110.975 981.379C-275.986 981.379 -410.229 847.137 -410.229 682.125C-410.229 517.114 -275.986 382.871 -110.975 382.871C54.0366 382.871 188.279 517.114 188.279 682.125C188.279 847.137 54.0366 981.379 -110.975 981.379Z" stroke="#8E22E6" stroke-width="0.87" stroke-miterlimit="10"/>
<path d="M-110.974 977.097C-273.617 977.097 -405.945 844.769 -405.945 682.125C-405.945 519.482 -273.617 387.154 -110.974 387.154C51.6691 387.154 183.997 519.482 183.997 682.125C183.997 844.769 51.6691 977.097 -110.974 977.097Z" stroke="#8E22E6" stroke-width="0.87" stroke-miterlimit="10"/>
<path d="M-110.974 973.133C-271.434 973.133 -401.965 842.602 -401.965 682.142C-401.965 521.682 -271.434 391.151 -110.974 391.151C49.4858 391.151 180.017 521.682 180.017 682.142C180.017 842.602 49.4858 973.133 -110.974 973.133Z" stroke="#8E22E6" stroke-width="0.87" stroke-miterlimit="10"/>
<path d="M-110.975 968.834C-269.066 968.834 -397.683 840.217 -397.683 682.126C-397.683 524.034 -269.066 395.417 -110.975 395.417C47.1171 395.417 175.734 524.034 175.734 682.126C175.734 840.217 47.1171 968.834 -110.975 968.834Z" stroke="#8E22E6" stroke-width="0.87" stroke-miterlimit="10"/>
<path d="M-110.974 964.87C-266.883 964.87 -393.719 838.034 -393.719 682.142C-393.719 526.251 -266.883 399.398 -110.974 399.398C44.934 399.398 171.753 526.234 171.753 682.142C171.753 838.051 44.9172 964.87 -110.974 964.87Z" stroke="#8E22E6" stroke-width="0.87" stroke-miterlimit="10"/>
<path d="M-110.974 960.587C-264.514 960.587 -389.419 835.682 -389.419 682.142C-389.419 528.602 -264.497 403.697 -110.974 403.697C42.5494 403.697 167.471 528.619 167.471 682.142C167.471 835.666 42.5662 960.587 -110.974 960.587Z" stroke="#8E22E6" stroke-width="0.87" stroke-miterlimit="10"/>
<path d="M-110.975 956.607C-262.332 956.607 -385.456 833.482 -385.456 682.142C-385.456 530.802 -262.332 407.661 -110.975 407.661C40.3821 407.661 163.49 530.785 163.49 682.142C163.49 833.499 40.3653 956.607 -110.975 956.607Z" stroke="#8E22E6" stroke-width="0.87" stroke-miterlimit="10"/>
<path d="M-110.974 952.324C-259.963 952.324 -381.173 831.114 -381.173 682.142C-381.173 533.17 -259.963 411.944 -110.974 411.944C38.0145 411.944 159.208 533.154 159.208 682.142C159.208 831.131 37.9977 952.324 -110.974 952.324Z" stroke="#8E22E6" stroke-width="0.87" stroke-miterlimit="10"/>
<path d="M-110.974 948.344C-257.763 948.344 -377.192 828.914 -377.192 682.125C-377.192 535.337 -257.763 415.907 -110.974 415.907C35.8144 415.907 155.244 535.337 155.244 682.125C155.244 828.914 35.8144 948.344 -110.974 948.344Z" stroke="#8E22E6" stroke-width="0.87" stroke-miterlimit="10"/>
<path d="M-110.975 944.061C-255.412 944.061 -372.91 826.563 -372.91 682.126C-372.91 537.688 -255.412 420.19 -110.975 420.19C33.4626 420.19 150.961 537.688 150.961 682.126C150.961 826.563 33.4626 944.061 -110.975 944.061Z" stroke="#8E22E6" stroke-width="0.87" stroke-miterlimit="10"/>
<path d="M-110.975 940.097C-253.212 940.097 -368.93 824.379 -368.93 682.142C-368.93 539.905 -253.212 424.187 -110.975 424.187C31.2624 424.187 146.98 539.905 146.98 682.142C146.98 824.379 31.2624 940.097 -110.975 940.097Z" stroke="#8E22E6" stroke-width="0.87" stroke-miterlimit="10"/>
<path d="M-110.974 935.798C-250.843 935.798 -364.646 821.995 -364.646 682.125C-364.646 542.256 -250.843 428.453 -110.974 428.453C28.8948 428.453 142.698 542.256 142.698 682.125C142.698 821.995 28.8948 935.798 -110.974 935.798Z" stroke="#8E22E6" stroke-width="0.87" stroke-miterlimit="10"/>
<path d="M-110.974 931.834C-248.66 931.834 -360.683 819.828 -360.683 682.142C-360.683 544.457 -248.677 432.434 -110.974 432.434C26.7285 432.434 138.718 544.44 138.718 682.142C138.718 819.845 26.7117 931.834 -110.974 931.834Z" stroke="#8E22E6" stroke-width="0.87" stroke-miterlimit="10"/>
<path d="M-110.975 927.551C-246.292 927.551 -356.384 817.46 -356.384 682.142C-356.384 546.825 -246.292 436.733 -110.975 436.733C24.3429 436.733 134.434 546.825 134.434 682.142C134.434 817.46 24.3429 927.551 -110.975 927.551Z" stroke="#8E22E6" stroke-width="0.87" stroke-miterlimit="10"/>
<path d="M-110.974 923.571C-244.109 923.571 -352.42 815.26 -352.42 682.142C-352.42 549.025 -244.109 440.697 -110.974 440.697C22.1598 440.697 130.454 549.008 130.454 682.142C130.454 815.277 22.143 923.571 -110.974 923.571Z" stroke="#8E22E6" stroke-width="0.87" stroke-miterlimit="10"/>
<path d="M-110.974 919.288C-241.74 919.288 -348.137 812.908 -348.137 682.142C-348.137 551.376 -241.757 444.98 -110.974 444.98C19.8089 444.98 126.172 551.359 126.172 682.142C126.172 812.925 19.7921 919.288 -110.974 919.288Z" stroke="#8E22E6" stroke-width="0.87" stroke-miterlimit="10"/>
<path d="M-110.974 915.308C-239.557 915.308 -344.156 810.708 -344.156 682.126C-344.156 553.543 -239.557 448.943 -110.974 448.943C17.6088 448.943 122.208 553.543 122.208 682.126C122.208 810.708 17.6088 915.308 -110.974 915.308Z" stroke="#8E22E6" stroke-width="0.87" stroke-miterlimit="10"/>
<path d="M-110.974 911.025C-237.189 911.025 -339.874 808.34 -339.874 682.125C-339.874 555.911 -237.189 453.226 -110.974 453.226C15.2403 453.226 117.925 555.911 117.925 682.125C117.925 808.34 15.2403 911.025 -110.974 911.025Z" stroke="#8E22E6" stroke-width="0.87" stroke-miterlimit="10"/>
<path d="M-110.974 907.045C-234.989 907.045 -335.894 806.157 -335.894 682.125C-335.894 558.094 -234.989 457.206 -110.974 457.206C13.0401 457.206 113.945 558.111 113.945 682.125C113.945 806.14 13.0569 907.045 -110.974 907.045Z" stroke="#8E22E6" stroke-width="0.87" stroke-miterlimit="10"/>
<path d="M-110.975 902.762C-232.638 902.762 -331.611 803.789 -331.611 682.125C-331.611 560.462 -232.638 461.489 -110.975 461.489C10.6883 461.489 109.661 560.462 109.661 682.125C109.661 803.789 10.6883 902.762 -110.975 902.762Z" stroke="#8E22E6" stroke-width="0.87" stroke-miterlimit="10"/>
<path d="M-110.975 898.798C-230.438 898.798 -327.631 801.605 -327.631 682.142C-327.631 562.679 -230.438 465.486 -110.975 465.486C8.48823 465.486 105.681 562.679 105.681 682.142C105.681 801.605 8.48823 898.798 -110.975 898.798Z" stroke="#8E22E6" stroke-width="0.87" stroke-miterlimit="10"/>
<path d="M-110.974 894.516C-228.086 894.516 -323.348 799.237 -323.348 682.142C-323.348 565.047 -228.069 469.769 -110.974 469.769C6.1206 469.769 101.399 565.047 101.399 682.142C101.399 799.237 6.1206 894.516 -110.974 894.516Z" stroke="#8E22E6" stroke-width="0.87" stroke-miterlimit="10"/>
<path d="M-110.974 890.535C4.12729 890.535 97.4355 797.227 97.4355 682.125C97.4355 567.024 4.12729 473.716 -110.974 473.716C-226.076 473.716 -319.384 567.024 -319.384 682.125C-319.384 797.227 -226.076 890.535 -110.974 890.535Z" stroke="#8E22E6" stroke-width="0.87" stroke-miterlimit="10"/>
<path d="M-110.975 886.252C-223.518 886.252 -315.102 794.686 -315.102 682.126C-315.102 569.565 -223.535 477.999 -110.975 477.999C1.58563 477.999 93.1522 569.565 93.1522 682.126C93.1522 794.686 1.58563 886.252 -110.975 886.252Z" stroke="#8E22E6" stroke-width="0.87" stroke-miterlimit="10"/>
<path d="M-110.974 881.97C-221.167 881.97 -310.802 792.318 -310.802 682.142C-310.802 571.967 -221.15 482.315 -110.974 482.315C-0.798956 482.315 88.853 571.967 88.853 682.142C88.853 792.318 -0.798956 881.97 -110.974 881.97Z" stroke="#8E22E6" stroke-width="0.87" stroke-miterlimit="10"/>
<path d="M-110.974 877.687C-218.798 877.687 -306.519 789.966 -306.519 682.142C-306.519 574.318 -218.798 486.598 -110.974 486.598C-3.14982 486.598 84.5706 574.318 84.5706 682.142C84.5706 789.966 -3.14982 877.687 -110.974 877.687Z" stroke="#8E22E6" stroke-width="0.87" stroke-miterlimit="10"/>
<path d="M-110.974 873.404C-216.43 873.404 -302.236 787.598 -302.236 682.142C-302.236 576.686 -216.43 490.88 -110.974 490.88C-5.51841 490.88 80.2874 576.686 80.2874 682.142C80.2874 787.598 -5.51841 873.404 -110.974 873.404Z" stroke="#8E22E6" stroke-width="0.87" stroke-miterlimit="10"/>
<path d="M-110.974 869.105C-214.079 869.105 -297.953 785.23 -297.953 682.125C-297.953 579.021 -214.079 495.146 -110.974 495.146C-7.86923 495.146 76.0052 579.021 76.0052 682.125C76.0052 785.23 -7.86923 869.105 -110.974 869.105Z" stroke="#8E22E6" stroke-width="0.87" stroke-miterlimit="10"/>
<path d="M-110.974 864.822C-211.711 864.822 -293.671 782.862 -293.671 682.126C-293.671 581.389 -211.711 499.429 -110.974 499.429C-10.2379 499.429 71.7219 581.389 71.7219 682.126C71.7219 782.862 -10.2379 864.822 -110.974 864.822Z" stroke="#8E22E6" stroke-width="0.87" stroke-miterlimit="10"/>
<path d="M-110.974 860.539C-209.343 860.539 -289.388 780.511 -289.388 682.125C-289.388 583.74 -209.359 503.712 -110.974 503.712C-12.5887 503.712 67.4397 583.74 67.4397 682.125C67.4397 780.511 -12.5887 860.539 -110.974 860.539Z" stroke="#8E22E6" stroke-width="0.87" stroke-miterlimit="10"/>
<path d="M-110.975 856.256C-206.992 856.256 -285.105 778.143 -285.105 682.125C-285.105 586.108 -206.992 507.995 -110.975 507.995C-14.9573 507.995 63.1564 586.108 63.1564 682.125C63.1564 778.143 -14.9573 856.256 -110.975 856.256Z" stroke="#8E22E6" stroke-width="0.87" stroke-miterlimit="10"/>
<path d="M-110.974 851.974C-204.623 851.974 -280.806 775.791 -280.806 682.142C-280.806 588.493 -204.623 512.311 -110.974 512.311C-17.3251 512.311 58.8571 588.493 58.8571 682.142C58.8571 775.791 -17.3251 851.974 -110.974 851.974Z" stroke="#8E22E6" stroke-width="0.87" stroke-miterlimit="10"/>
<path d="M-110.975 847.691C-202.256 847.691 -276.523 773.423 -276.523 682.142C-276.523 590.861 -202.256 516.594 -110.975 516.594C-19.6938 516.594 54.5739 590.861 54.5739 682.142C54.5739 773.423 -19.6938 847.691 -110.975 847.691Z" stroke="#8E22E6" stroke-width="0.87" stroke-miterlimit="10"/>
<path d="M-110.974 843.408C-199.904 843.408 -272.24 771.055 -272.24 682.142C-272.24 593.229 -199.887 520.876 -110.974 520.876C-22.0614 520.876 50.2917 593.229 50.2917 682.142C50.2917 771.055 -22.0614 843.408 -110.974 843.408Z" stroke="#8E22E6" stroke-width="0.87" stroke-miterlimit="10"/>
<path d="M-110.975 839.125C-197.536 839.125 -267.958 768.704 -267.958 682.142C-267.958 595.581 -197.536 525.159 -110.975 525.159C-24.4131 525.159 46.0085 595.581 46.0085 682.142C46.0085 768.704 -24.4131 839.125 -110.975 839.125Z" stroke="#8E22E6" stroke-width="0.87" stroke-miterlimit="10"/>
<path d="M-110.974 834.826C-195.168 834.826 -263.675 766.319 -263.675 682.125C-263.675 597.932 -195.168 529.425 -110.974 529.425C-26.7808 529.425 41.7261 597.932 41.7261 682.125C41.7261 766.319 -26.7808 834.826 -110.974 834.826Z" stroke="#8E22E6" stroke-width="0.87" stroke-miterlimit="10"/>
<path d="M-110.975 830.543C-192.817 830.543 -259.393 763.968 -259.393 682.126C-259.393 600.283 -192.817 533.708 -110.975 533.708C-29.1326 533.708 37.4429 600.283 37.4429 682.126C37.4429 763.968 -29.1326 830.543 -110.975 830.543Z" stroke="#8E22E6" stroke-width="0.87" stroke-miterlimit="10"/>
<path d="M-110.974 826.261C-190.448 826.261 -255.109 761.6 -255.109 682.126C-255.109 602.651 -190.448 537.99 -110.974 537.99C-31.5002 537.99 33.1607 602.651 33.1607 682.126C33.1607 761.6 -31.5002 826.261 -110.974 826.261Z" stroke="#8E22E6" stroke-width="0.87" stroke-miterlimit="10"/>
<path d="M-110.974 821.978C-188.08 821.978 -250.826 759.248 -250.826 682.126C-250.826 605.003 -188.097 542.273 -110.974 542.273C-33.8511 542.273 28.8784 605.003 28.8784 682.126C28.8784 759.248 -33.8511 821.978 -110.974 821.978Z" stroke="#8E22E6" stroke-width="0.87" stroke-miterlimit="10"/>
<path d="M-110.975 817.695C-185.729 817.695 -246.527 756.88 -246.527 682.142C-246.527 607.404 -185.713 546.59 -110.975 546.59C-36.2367 546.59 24.5781 607.404 24.5781 682.142C24.5781 756.88 -36.2367 817.695 -110.975 817.695Z" stroke="#8E22E6" stroke-width="0.87" stroke-miterlimit="10"/>
<path d="M-110.974 813.412C-183.361 813.412 -242.244 754.529 -242.244 682.142C-242.244 609.756 -183.361 550.872 -110.974 550.872C-38.5875 550.872 20.2959 609.756 20.2959 682.142C20.2959 754.529 -38.5875 813.412 -110.974 813.412Z" stroke="#8E22E6" stroke-width="0.87" stroke-miterlimit="10"/>
<path d="M-110.975 809.13C-180.993 809.13 -237.962 752.161 -237.962 682.142C-237.962 612.124 -180.993 555.155 -110.975 555.155C-40.9562 555.155 16.0126 612.124 16.0126 682.142C16.0126 752.161 -40.9562 809.13 -110.975 809.13Z" stroke="#8E22E6" stroke-width="0.87" stroke-miterlimit="10"/>
<path d="M-110.974 804.847C-178.641 804.847 -233.679 749.809 -233.679 682.142C-233.679 614.475 -178.641 559.438 -110.974 559.438C-43.3069 559.438 11.7304 614.475 11.7304 682.142C11.7304 749.809 -43.3069 804.847 -110.974 804.847Z" stroke="#8E22E6" stroke-width="0.87" stroke-miterlimit="10"/>
<path d="M-110.975 800.547C-176.274 800.547 -229.396 747.425 -229.396 682.126C-229.396 616.826 -176.274 563.704 -110.975 563.704C-45.6755 563.704 7.44717 616.826 7.44717 682.126C7.44717 747.425 -45.6755 800.547 -110.975 800.547Z" stroke="#8E22E6" stroke-width="0.87" stroke-miterlimit="10"/>
<path d="M-110.974 796.265C-173.905 796.265 -225.113 745.056 -225.113 682.125C-225.113 619.194 -173.905 567.986 -110.974 567.986C-48.0432 567.986 3.16485 619.194 3.16485 682.125C3.16485 745.056 -48.0432 796.265 -110.974 796.265Z" stroke="#8E22E6" stroke-width="0.87" stroke-miterlimit="10"/>
<path d="M-110.974 1162.97C154.587 1162.97 369.867 947.687 369.867 682.126C369.867 416.564 154.587 201.284 -110.974 201.284C-376.536 201.284 -591.816 416.564 -591.816 682.126C-591.816 947.687 -376.536 1162.97 -110.974 1162.97Z" fill="url(#paint2_radial_3813_19249)"/>
<path d="M606.168 496.322C340.975 496.322 125.209 280.573 125.209 15.3792C125.209 -249.814 340.975 -465.58 606.168 -465.58C871.362 -465.58 1087.11 -249.831 1087.11 15.3792C1087.11 280.59 871.362 496.322 606.168 496.322Z" stroke="#8E22E6" stroke-width="0.87" stroke-miterlimit="10"/>
<path d="M606.168 492.039C343.326 492.039 129.491 278.205 129.491 15.3792C129.491 -247.446 343.342 -461.298 606.168 -461.298C868.994 -461.298 1082.83 -247.463 1082.83 15.3792C1082.83 278.222 868.994 492.039 606.168 492.039Z" stroke="#8E22E6" stroke-width="0.87" stroke-miterlimit="10"/>
<path d="M606.168 488.059C345.526 488.059 133.472 276.005 133.472 15.3624C133.472 -245.28 345.526 -457.317 606.168 -457.317C866.81 -457.317 1078.86 -245.263 1078.86 15.3792C1078.86 276.021 866.81 488.076 606.168 488.076V488.059Z" stroke="#8E22E6" stroke-width="0.87" stroke-miterlimit="10"/>
<path d="M606.168 483.776C347.894 483.776 137.755 273.653 137.755 15.3792C137.755 -242.895 347.894 -453.034 606.168 -453.034C864.443 -453.034 1074.57 -242.912 1074.57 15.3792C1074.57 273.67 864.443 483.776 606.168 483.776Z" stroke="#8E22E6" stroke-width="0.87" stroke-miterlimit="10"/>
<path d="M606.169 479.796C350.078 479.796 141.735 271.453 141.735 15.3625C141.735 -240.728 350.078 -449.071 606.169 -449.071C862.259 -449.071 1070.6 -240.728 1070.6 15.3625C1070.6 271.453 862.259 479.796 606.169 479.796Z" stroke="#8E22E6" stroke-width="0.87" stroke-miterlimit="10"/>
<path d="M606.168 475.513C352.445 475.513 146.018 269.085 146.018 15.3624C146.018 -238.36 352.445 -444.771 606.168 -444.771C859.891 -444.771 1066.32 -238.344 1066.32 15.3791C1066.32 269.102 859.891 475.53 606.168 475.53V475.513Z" stroke="#8E22E6" stroke-width="0.87" stroke-miterlimit="10"/>
<path d="M606.168 471.549C354.629 471.549 149.998 266.919 149.998 15.3792C149.998 -236.16 354.629 -440.808 606.168 -440.808C857.707 -440.808 1062.34 -236.177 1062.34 15.3625C1062.34 266.902 857.707 471.533 606.168 471.533V471.549Z" stroke="#8E22E6" stroke-width="0.87" stroke-miterlimit="10"/>
<path d="M606.169 467.267C356.997 467.267 154.281 264.551 154.281 15.3793C154.281 -233.792 356.997 -436.525 606.169 -436.525C855.34 -436.525 1058.06 -233.809 1058.06 15.3625C1058.06 264.534 855.34 467.25 606.169 467.25V467.267Z" stroke="#8E22E6" stroke-width="0.87" stroke-miterlimit="10"/>
<path d="M606.168 463.286C359.18 463.286 158.244 262.35 158.244 15.3792C158.244 -231.592 359.18 -432.544 606.168 -432.544C853.156 -432.544 1054.07 -231.609 1054.07 15.3792C1054.07 262.367 853.139 463.286 606.168 463.286Z" stroke="#8E22E6" stroke-width="0.87" stroke-miterlimit="10"/>
<path d="M606.168 459.003C361.548 459.003 162.544 259.999 162.544 15.3792C162.544 -229.241 361.548 -428.262 606.168 -428.262C850.788 -428.262 1049.79 -229.241 1049.79 15.3624C1049.79 259.965 850.788 458.987 606.168 458.987V459.003Z" stroke="#8E22E6" stroke-width="0.87" stroke-miterlimit="10"/>
<path d="M606.168 455.023C363.732 455.023 166.508 257.799 166.508 15.3625C166.508 -227.074 363.749 -424.281 606.168 -424.281C848.588 -424.281 1045.83 -227.057 1045.83 15.3792C1045.83 257.816 848.605 455.04 606.168 455.04V455.023Z" stroke="#8E22E6" stroke-width="0.87" stroke-miterlimit="10"/>
<path d="M606.168 450.74C366.099 450.74 170.79 255.431 170.79 15.3792C170.79 -224.672 366.099 -419.999 606.168 -419.999C846.236 -419.999 1041.53 -224.689 1041.53 15.3792C1041.53 255.447 846.219 450.74 606.168 450.74Z" stroke="#8E22E6" stroke-width="0.87" stroke-miterlimit="10"/>
<path d="M606.168 446.76C368.3 446.76 174.771 253.231 174.771 15.3624C174.771 -222.506 368.3 -416.035 606.168 -416.035C844.036 -416.035 1037.57 -222.506 1037.57 15.3624C1037.57 253.231 844.036 446.76 606.168 446.76Z" stroke="#8E22E6" stroke-width="0.87" stroke-miterlimit="10"/>
<path d="M606.168 442.477C370.652 442.477 179.054 250.879 179.054 15.3624C179.054 -220.154 370.652 -411.752 606.168 -411.752C841.685 -411.752 1033.28 -220.154 1033.28 15.3624C1033.28 250.879 841.685 442.477 606.168 442.477Z" stroke="#8E22E6" stroke-width="0.87" stroke-miterlimit="10"/>
<path d="M606.168 438.513C372.852 438.513 183.034 248.696 183.034 15.3792C183.034 -217.937 372.852 -407.755 606.168 -407.755C839.485 -407.755 1029.3 -217.937 1029.3 15.3792C1029.3 248.696 839.485 438.513 606.168 438.513Z" stroke="#8E22E6" stroke-width="0.87" stroke-miterlimit="10"/>
<path d="M606.168 434.231C375.202 434.231 187.316 246.328 187.316 15.3792C187.316 -215.569 375.219 -403.472 606.168 -403.472C837.116 -403.472 1025.02 -215.569 1025.02 15.3792C1025.02 246.328 837.116 434.231 606.168 434.231Z" stroke="#8E22E6" stroke-width="0.87" stroke-miterlimit="10"/>
<path d="M606.168 430.25C377.403 430.25 191.28 244.144 191.28 15.3792C191.28 -213.386 377.403 -399.509 606.168 -399.509C834.933 -399.509 1021.04 -213.386 1021.04 15.3792C1021.04 244.144 834.933 430.25 606.168 430.25Z" stroke="#8E22E6" stroke-width="0.87" stroke-miterlimit="10"/>
<path d="M606.168 425.968C379.771 425.968 195.58 241.776 195.58 15.3792C195.58 -211.018 379.771 -395.209 606.168 -395.209C832.565 -395.209 1016.76 -211.018 1016.76 15.3792C1016.76 241.776 832.565 425.968 606.168 425.968Z" stroke="#8E22E6" stroke-width="0.87" stroke-miterlimit="10"/>
<path d="M606.169 421.987C381.955 421.987 199.544 239.576 199.544 15.3624C199.544 -208.851 381.955 -391.262 606.169 -391.262C830.382 -391.262 1012.79 -208.851 1012.79 15.3624C1012.79 239.576 830.382 421.987 606.169 421.987Z" stroke="#8E22E6" stroke-width="0.87" stroke-miterlimit="10"/>
<path d="M606.168 417.704C384.322 417.704 203.826 237.225 203.826 15.3792C203.826 -206.466 384.306 -386.963 606.168 -386.963C828.031 -386.963 1008.49 -206.483 1008.49 15.3792C1008.49 237.242 828.014 417.704 606.168 417.704Z" stroke="#8E22E6" stroke-width="0.87" stroke-miterlimit="10"/>
<path d="M606.168 413.724C386.506 413.724 207.807 235.025 207.807 15.3624C207.807 -204.3 386.506 -382.999 606.168 -382.999C825.83 -382.999 1004.53 -204.3 1004.53 15.3624C1004.53 235.025 825.83 413.724 606.168 413.724Z" stroke="#8E22E6" stroke-width="0.87" stroke-miterlimit="10"/>
<path d="M606.169 409.441C388.874 409.441 212.09 232.657 212.09 15.3625C212.09 -201.932 388.874 -378.716 606.169 -378.716C823.463 -378.716 1000.25 -201.932 1000.25 15.3625C1000.25 232.657 823.463 409.441 606.169 409.441Z" stroke="#8E22E6" stroke-width="0.87" stroke-miterlimit="10"/>
<path d="M606.169 405.478C391.058 405.478 216.07 230.49 216.07 15.3792C216.07 -199.732 391.075 -374.719 606.169 -374.719C821.263 -374.719 996.267 -199.715 996.267 15.3792C996.267 230.473 821.279 405.478 606.169 405.478Z" stroke="#8E22E6" stroke-width="0.87" stroke-miterlimit="10"/>
<path d="M606.168 401.195C393.425 401.195 220.353 228.122 220.353 15.3792C220.353 -197.364 393.425 -370.436 606.168 -370.436C818.911 -370.436 991.984 -197.364 991.984 15.3792C991.984 228.122 818.911 401.195 606.168 401.195Z" stroke="#8E22E6" stroke-width="0.87" stroke-miterlimit="10"/>
<path d="M606.168 397.215C395.609 397.215 224.316 225.922 224.316 15.3792C224.316 -195.163 395.609 -366.473 606.168 -366.473C816.728 -366.473 988.003 -195.18 988.003 15.3792C988.003 225.939 816.711 397.215 606.168 397.215Z" stroke="#8E22E6" stroke-width="0.87" stroke-miterlimit="10"/>
<path d="M606.168 392.932C397.976 392.932 228.615 223.554 228.615 15.3792C228.615 -192.795 397.993 -362.173 606.168 -362.173C814.342 -362.173 983.72 -192.795 983.72 15.3792C983.72 223.554 814.342 392.932 606.168 392.932Z" stroke="#8E22E6" stroke-width="0.87" stroke-miterlimit="10"/>
<path d="M606.168 388.951C400.177 388.951 232.579 221.37 232.579 15.3792C232.579 -190.612 400.16 -358.21 606.168 -358.21C812.176 -358.21 979.74 -190.629 979.74 15.3792C979.74 221.387 812.159 388.951 606.168 388.951Z" stroke="#8E22E6" stroke-width="0.87" stroke-miterlimit="10"/>
<path d="M606.168 384.669C402.529 384.669 236.862 219.002 236.862 15.3792C236.862 -188.244 402.529 -353.927 606.168 -353.927C809.808 -353.927 975.458 -188.261 975.458 15.3792C975.458 219.019 809.791 384.669 606.168 384.669Z" stroke="#8E22E6" stroke-width="0.87" stroke-miterlimit="10"/>
<path d="M606.168 380.688C404.729 380.688 240.843 216.802 240.843 15.3624C240.843 -186.077 404.729 -349.963 606.168 -349.963C807.608 -349.963 971.494 -186.077 971.494 15.3624C971.494 216.802 807.608 380.688 606.168 380.688Z" stroke="#8E22E6" stroke-width="0.87" stroke-miterlimit="10"/>
<path d="M606.168 376.405C407.096 376.405 245.125 214.451 245.125 15.3624C245.125 -183.726 407.096 -345.681 606.168 -345.681C805.24 -345.681 967.211 -183.709 967.211 15.3624C967.211 214.434 805.256 376.405 606.168 376.405Z" stroke="#8E22E6" stroke-width="0.87" stroke-miterlimit="10"/>
<path d="M606.168 372.442C409.28 372.442 249.105 212.267 249.105 15.3792C249.105 -181.509 409.28 -341.683 606.168 -341.683C803.056 -341.683 963.23 -181.509 963.23 15.3792C963.23 212.267 803.056 372.442 606.168 372.442Z" stroke="#8E22E6" stroke-width="0.87" stroke-miterlimit="10"/>
<path d="M606.168 368.159C411.648 368.159 253.389 209.899 253.389 15.3792C253.389 -179.141 411.648 -337.401 606.168 -337.401C800.689 -337.401 958.948 -179.141 958.948 15.3792C958.948 209.899 800.689 368.159 606.168 368.159Z" stroke="#8E22E6" stroke-width="0.87" stroke-miterlimit="10"/>
<path d="M606.168 364.179C413.831 364.179 257.352 207.699 257.352 15.3792C257.352 -176.941 413.831 -333.437 606.168 -333.437C798.504 -333.437 954.967 -176.958 954.967 15.3792C954.967 207.716 798.488 364.179 606.168 364.179Z" stroke="#8E22E6" stroke-width="0.87" stroke-miterlimit="10"/>
<path d="M606.168 359.896C416.199 359.896 261.651 205.348 261.651 15.3792C261.651 -174.589 416.199 -329.137 606.168 -329.137C796.137 -329.137 950.685 -174.589 950.685 15.3792C950.685 205.348 796.137 359.896 606.168 359.896Z" stroke="#8E22E6" stroke-width="0.87" stroke-miterlimit="10"/>
<path d="M606.168 355.916C418.383 355.916 265.615 203.148 265.615 15.3793C265.615 -172.389 418.383 -325.174 606.168 -325.174C793.954 -325.174 946.704 -172.406 946.704 15.3793C946.704 203.165 793.937 355.916 606.168 355.916Z" stroke="#8E22E6" stroke-width="0.87" stroke-miterlimit="10"/>
<path d="M606.168 351.633C420.75 351.633 269.897 200.78 269.897 15.3792C269.897 -170.021 420.75 -320.891 606.168 -320.891C791.585 -320.891 942.421 -170.038 942.421 15.3792C942.421 200.796 791.568 351.633 606.168 351.633Z" stroke="#8E22E6" stroke-width="0.87" stroke-miterlimit="10"/>
<path d="M606.168 347.652C422.951 347.652 273.878 198.596 273.878 15.3624C273.878 -167.871 422.951 -316.927 606.168 -316.927C789.385 -316.927 938.458 -167.855 938.458 15.3624C938.458 198.58 789.402 347.652 606.168 347.652Z" stroke="#8E22E6" stroke-width="0.87" stroke-miterlimit="10"/>
<path d="M606.168 343.369C425.302 343.369 278.161 196.228 278.161 15.3624C278.161 -165.503 425.302 -312.645 606.168 -312.645C787.034 -312.645 934.175 -165.503 934.175 15.3624C934.175 196.228 787.034 343.369 606.168 343.369Z" stroke="#8E22E6" stroke-width="0.87" stroke-miterlimit="10"/>
<path d="M606.168 339.406C427.503 339.406 282.142 194.045 282.142 15.3792C282.142 -163.286 427.503 -308.647 606.168 -308.647C784.834 -308.647 930.195 -163.286 930.195 15.3792C930.195 194.045 784.834 339.406 606.168 339.406Z" stroke="#8E22E6" stroke-width="0.87" stroke-miterlimit="10"/>
<path d="M606.168 335.106C429.853 335.106 286.424 191.677 286.424 15.3625C286.424 -160.952 429.87 -304.382 606.168 -304.382C782.465 -304.382 925.912 -160.935 925.912 15.3625C925.912 191.66 782.482 335.106 606.168 335.106Z" stroke="#8E22E6" stroke-width="0.87" stroke-miterlimit="10"/>
<path d="M606.168 331.143C432.054 331.143 290.388 189.493 290.388 15.3792C290.388 -158.735 432.037 -300.401 606.168 -300.401C780.299 -300.401 921.931 -158.752 921.931 15.3792C921.931 189.51 780.282 331.143 606.168 331.143Z" stroke="#8E22E6" stroke-width="0.87" stroke-miterlimit="10"/>
<path d="M606.168 326.86C434.422 326.86 294.688 187.125 294.688 15.3792C294.688 -156.367 434.422 -296.102 606.168 -296.102C777.914 -296.102 917.649 -156.367 917.649 15.3792C917.649 187.125 777.914 326.86 606.168 326.86Z" stroke="#8E22E6" stroke-width="0.87" stroke-miterlimit="10"/>
<path d="M606.168 322.88C436.606 322.88 298.651 184.942 298.651 15.3792C298.651 -154.183 436.606 -292.138 606.168 -292.138C775.731 -292.138 913.669 -154.183 913.669 15.3792C913.669 184.942 775.731 322.88 606.168 322.88Z" stroke="#8E22E6" stroke-width="0.87" stroke-miterlimit="10"/>
<path d="M606.168 318.597C438.973 318.597 302.934 182.574 302.934 15.3792C302.934 -151.815 438.957 -287.855 606.168 -287.855C773.379 -287.855 909.386 -151.832 909.386 15.3792C909.386 182.591 773.363 318.597 606.168 318.597Z" stroke="#8E22E6" stroke-width="0.87" stroke-miterlimit="10"/>
<path d="M606.168 314.616C441.157 314.616 306.914 180.374 306.914 15.3624C306.914 -149.649 441.157 -283.892 606.168 -283.892C771.179 -283.892 905.422 -149.649 905.422 15.3624C905.422 180.374 771.179 314.616 606.168 314.616Z" stroke="#8E22E6" stroke-width="0.87" stroke-miterlimit="10"/>
<path d="M606.169 310.334C443.525 310.334 311.197 178.006 311.197 15.3624C311.197 -147.281 443.525 -279.609 606.169 -279.609C768.812 -279.609 901.14 -147.281 901.14 15.3624C901.14 178.006 768.812 310.334 606.169 310.334Z" stroke="#8E22E6" stroke-width="0.87" stroke-miterlimit="10"/>
<path d="M606.169 306.37C445.709 306.37 315.178 175.839 315.178 15.3792C315.178 -145.081 445.709 -275.612 606.169 -275.612C766.628 -275.612 897.159 -145.081 897.159 15.3792C897.159 175.839 766.628 306.37 606.169 306.37Z" stroke="#8E22E6" stroke-width="0.87" stroke-miterlimit="10"/>
<path d="M606.168 302.071C448.076 302.071 319.46 173.454 319.46 15.3625C319.46 -142.729 448.076 -271.346 606.168 -271.346C764.26 -271.346 892.876 -142.729 892.876 15.3625C892.876 173.454 764.26 302.071 606.168 302.071Z" stroke="#8E22E6" stroke-width="0.87" stroke-miterlimit="10"/>
<path d="M606.168 298.107C450.26 298.107 323.424 171.271 323.424 15.3792C323.424 -140.512 450.26 -267.365 606.168 -267.365C762.077 -267.365 888.896 -140.529 888.896 15.3792C888.896 171.288 762.06 298.107 606.168 298.107Z" stroke="#8E22E6" stroke-width="0.87" stroke-miterlimit="10"/>
<path d="M606.169 293.824C452.628 293.824 327.724 168.919 327.724 15.3792C327.724 -138.161 452.645 -263.066 606.169 -263.066C759.692 -263.066 884.613 -138.144 884.613 15.3792C884.613 168.903 759.709 293.824 606.169 293.824Z" stroke="#8E22E6" stroke-width="0.87" stroke-miterlimit="10"/>
<path d="M606.168 289.844C454.811 289.844 331.687 166.719 331.687 15.3792C331.687 -135.961 454.811 -259.102 606.168 -259.102C757.525 -259.102 880.632 -135.978 880.632 15.3792C880.632 166.736 757.508 289.844 606.168 289.844Z" stroke="#8E22E6" stroke-width="0.87" stroke-miterlimit="10"/>
<path d="M606.168 285.561C457.18 285.561 335.97 164.351 335.97 15.3792C335.97 -133.593 457.18 -254.819 606.168 -254.819C755.157 -254.819 876.35 -133.61 876.35 15.3792C876.35 164.368 755.14 285.561 606.168 285.561Z" stroke="#8E22E6" stroke-width="0.87" stroke-miterlimit="10"/>
<path d="M606.168 281.581C459.38 281.581 339.95 162.151 339.95 15.3624C339.95 -131.426 459.38 -250.856 606.168 -250.856C752.957 -250.856 872.386 -131.426 872.386 15.3624C872.386 162.151 752.957 281.581 606.168 281.581Z" stroke="#8E22E6" stroke-width="0.87" stroke-miterlimit="10"/>
<path d="M606.168 277.298C461.73 277.298 344.232 159.8 344.232 15.3624C344.232 -129.075 461.73 -246.573 606.168 -246.573C750.605 -246.573 868.103 -129.075 868.103 15.3624C868.103 159.8 750.605 277.298 606.168 277.298Z" stroke="#8E22E6" stroke-width="0.87" stroke-miterlimit="10"/>
<path d="M606.168 273.334C463.931 273.334 348.213 157.616 348.213 15.3792C348.213 -126.858 463.931 -242.576 606.168 -242.576C748.405 -242.576 864.123 -126.858 864.123 15.3792C864.123 157.616 748.405 273.334 606.168 273.334Z" stroke="#8E22E6" stroke-width="0.87" stroke-miterlimit="10"/>
<path d="M606.168 269.035C466.299 269.035 352.496 155.232 352.496 15.3624C352.496 -124.507 466.299 -238.31 606.168 -238.31C746.037 -238.31 859.841 -124.507 859.841 15.3624C859.841 155.232 746.037 269.035 606.168 269.035Z" stroke="#8E22E6" stroke-width="0.87" stroke-miterlimit="10"/>
<path d="M606.169 265.071C468.483 265.071 356.46 153.065 356.46 15.3792C356.46 -122.307 468.466 -234.329 606.169 -234.329C743.871 -234.329 855.86 -122.323 855.86 15.3792C855.86 153.082 743.854 265.071 606.169 265.071Z" stroke="#8E22E6" stroke-width="0.87" stroke-miterlimit="10"/>
<path d="M606.168 260.788C470.85 260.788 360.759 150.697 360.759 15.3792C360.759 -119.938 470.85 -230.03 606.168 -230.03C741.486 -230.03 851.577 -119.938 851.577 15.3792C851.577 150.697 741.486 260.788 606.168 260.788Z" stroke="#8E22E6" stroke-width="0.87" stroke-miterlimit="10"/>
<path d="M606.168 256.808C473.034 256.808 364.723 148.497 364.723 15.3792C364.723 -117.738 473.034 -226.066 606.168 -226.066C739.302 -226.066 847.597 -117.755 847.597 15.3792C847.597 148.513 739.286 256.808 606.168 256.808Z" stroke="#8E22E6" stroke-width="0.87" stroke-miterlimit="10"/>
<path d="M606.169 252.525C475.402 252.525 369.006 146.145 369.006 15.3792C369.006 -115.387 475.386 -221.784 606.169 -221.784C736.952 -221.784 843.314 -115.404 843.314 15.3792C843.314 146.162 736.935 252.525 606.169 252.525Z" stroke="#8E22E6" stroke-width="0.87" stroke-miterlimit="10"/>
<path d="M606.169 248.545C477.586 248.545 372.986 143.945 372.986 15.3625C372.986 -113.22 477.586 -217.82 606.169 -217.82C734.751 -217.82 839.351 -113.22 839.351 15.3625C839.351 143.945 734.751 248.545 606.169 248.545Z" stroke="#8E22E6" stroke-width="0.87" stroke-miterlimit="10"/>
<path d="M606.168 244.262C479.953 244.262 377.269 141.577 377.269 15.3624C377.269 -110.852 479.953 -213.537 606.168 -213.537C732.383 -213.537 835.068 -110.852 835.068 15.3624C835.068 141.577 732.383 244.262 606.168 244.262Z" stroke="#8E22E6" stroke-width="0.87" stroke-miterlimit="10"/>
<path d="M606.168 240.282C482.154 240.282 381.249 139.394 381.249 15.3624C381.249 -108.669 482.154 -209.557 606.168 -209.557C730.183 -209.557 831.087 -108.652 831.087 15.3624C831.087 139.377 730.199 240.282 606.168 240.282Z" stroke="#8E22E6" stroke-width="0.87" stroke-miterlimit="10"/>
<path d="M606.168 235.999C484.504 235.999 385.531 137.026 385.531 15.3624C385.531 -106.301 484.504 -205.274 606.168 -205.274C727.831 -205.274 826.804 -106.301 826.804 15.3624C826.804 137.026 727.831 235.999 606.168 235.999Z" stroke="#8E22E6" stroke-width="0.87" stroke-miterlimit="10"/>
<path d="M606.168 232.035C486.705 232.035 389.512 134.842 389.512 15.3792C389.512 -104.084 486.705 -201.277 606.168 -201.277C725.631 -201.277 822.824 -104.084 822.824 15.3792C822.824 134.842 725.631 232.035 606.168 232.035Z" stroke="#8E22E6" stroke-width="0.87" stroke-miterlimit="10"/>
<path d="M606.168 227.752C489.056 227.752 393.795 132.474 393.795 15.3792C393.795 -101.716 489.073 -196.994 606.168 -196.994C723.263 -196.994 818.541 -101.716 818.541 15.3792C818.541 132.474 723.263 227.752 606.168 227.752Z" stroke="#8E22E6" stroke-width="0.87" stroke-miterlimit="10"/>
<path d="M606.168 223.772C721.27 223.772 814.578 130.464 814.578 15.3624C814.578 -99.739 721.27 -193.047 606.168 -193.047C491.067 -193.047 397.759 -99.739 397.759 15.3624C397.759 130.464 491.067 223.772 606.168 223.772Z" stroke="#8E22E6" stroke-width="0.87" stroke-miterlimit="10"/>
<path d="M606.168 219.489C493.624 219.489 402.041 127.923 402.041 15.3625C402.041 -97.1979 493.608 -188.764 606.168 -188.764C718.728 -188.764 810.295 -97.1979 810.295 15.3625C810.295 127.923 718.728 219.489 606.168 219.489Z" stroke="#8E22E6" stroke-width="0.87" stroke-miterlimit="10"/>
<path d="M606.168 215.207C495.976 215.207 406.341 125.555 406.341 15.3792C406.341 -94.7962 495.993 -184.448 606.168 -184.448C716.344 -184.448 805.996 -94.7962 805.996 15.3792C805.996 125.555 716.344 215.207 606.168 215.207Z" stroke="#8E22E6" stroke-width="0.87" stroke-miterlimit="10"/>
<path d="M606.169 210.924C498.344 210.924 410.624 123.203 410.624 15.3792C410.624 -92.445 498.344 -180.165 606.169 -180.165C713.993 -180.165 801.713 -92.445 801.713 15.3792C801.713 123.203 713.993 210.924 606.169 210.924Z" stroke="#8E22E6" stroke-width="0.87" stroke-miterlimit="10"/>
<path d="M606.168 206.641C500.712 206.641 414.906 120.835 414.906 15.3792C414.906 -90.0769 500.712 -175.883 606.168 -175.883C711.624 -175.883 797.43 -90.0769 797.43 15.3792C797.43 120.835 711.624 206.641 606.168 206.641Z" stroke="#8E22E6" stroke-width="0.87" stroke-miterlimit="10"/>
<path d="M606.169 202.342C503.064 202.342 419.189 118.467 419.189 15.3624C419.189 -87.7423 503.064 -171.617 606.169 -171.617C709.273 -171.617 793.148 -87.7423 793.148 15.3624C793.148 118.467 709.273 202.342 606.169 202.342Z" stroke="#8E22E6" stroke-width="0.87" stroke-miterlimit="10"/>
<path d="M606.168 198.059C505.431 198.059 423.472 116.099 423.472 15.3624C423.472 -85.3742 505.431 -167.334 606.168 -167.334C706.905 -167.334 788.864 -85.3742 788.864 15.3624C788.864 116.099 706.905 198.059 606.168 198.059Z" stroke="#8E22E6" stroke-width="0.87" stroke-miterlimit="10"/>
<path d="M606.169 193.776C507.8 193.776 427.755 113.748 427.755 15.3624C427.755 -83.0229 507.783 -163.051 606.169 -163.051C704.554 -163.051 784.582 -83.0229 784.582 15.3624C784.582 113.748 704.554 193.776 606.169 193.776Z" stroke="#8E22E6" stroke-width="0.87" stroke-miterlimit="10"/>
<path d="M606.168 189.493C510.151 189.493 432.037 111.38 432.037 15.3624C432.037 -80.6548 510.151 -158.769 606.168 -158.769C702.185 -158.769 780.299 -80.6548 780.299 15.3624C780.299 111.38 702.185 189.493 606.168 189.493Z" stroke="#8E22E6" stroke-width="0.87" stroke-miterlimit="10"/>
<path d="M606.168 185.211C512.519 185.211 436.337 109.028 436.337 15.3792C436.337 -78.2699 512.519 -154.452 606.168 -154.452C699.817 -154.452 776 -78.2699 776 15.3792C776 109.028 699.817 185.211 606.168 185.211Z" stroke="#8E22E6" stroke-width="0.87" stroke-miterlimit="10"/>
<path d="M606.168 180.928C514.887 180.928 440.619 106.66 440.619 15.3792C440.619 -75.9018 514.887 -150.169 606.168 -150.169C697.449 -150.169 771.716 -75.9018 771.716 15.3792C771.716 106.66 697.449 180.928 606.168 180.928Z" stroke="#8E22E6" stroke-width="0.87" stroke-miterlimit="10"/>
<path d="M606.168 176.645C517.239 176.645 444.902 104.292 444.902 15.3792C444.902 -73.5338 517.255 -145.887 606.168 -145.887C695.081 -145.887 767.434 -73.5338 767.434 15.3792C767.434 104.292 695.081 176.645 606.168 176.645Z" stroke="#8E22E6" stroke-width="0.87" stroke-miterlimit="10"/>
<path d="M606.168 172.362C519.606 172.362 449.185 101.941 449.185 15.3792C449.185 -71.1825 519.606 -141.604 606.168 -141.604C692.729 -141.604 763.151 -71.1825 763.151 15.3792C763.151 101.941 692.729 172.362 606.168 172.362Z" stroke="#8E22E6" stroke-width="0.87" stroke-miterlimit="10"/>
<path d="M606.168 168.063C521.975 168.063 453.468 99.556 453.468 15.3624C453.468 -68.8311 521.975 -137.338 606.168 -137.338C690.362 -137.338 758.869 -68.8311 758.869 15.3624C758.869 99.556 690.362 168.063 606.168 168.063Z" stroke="#8E22E6" stroke-width="0.87" stroke-miterlimit="10"/>
<path d="M606.168 163.78C524.326 163.78 457.75 97.2047 457.75 15.3625C457.75 -66.4797 524.326 -133.055 606.168 -133.055C688.01 -133.055 754.585 -66.4797 754.585 15.3625C754.585 97.2047 688.01 163.78 606.168 163.78Z" stroke="#8E22E6" stroke-width="0.87" stroke-miterlimit="10"/>
<path d="M606.168 159.497C526.694 159.497 462.033 94.8365 462.033 15.3624C462.033 -64.1117 526.694 -128.773 606.168 -128.773C685.642 -128.773 750.303 -64.1117 750.303 15.3624C750.303 94.8365 685.642 159.497 606.168 159.497Z" stroke="#8E22E6" stroke-width="0.87" stroke-miterlimit="10"/>
<path d="M606.169 155.215C529.063 155.215 466.316 92.4852 466.316 15.3624C466.316 -61.7604 529.046 -124.49 606.169 -124.49C683.291 -124.49 746.021 -61.7604 746.021 15.3624C746.021 92.4852 683.291 155.215 606.169 155.215Z" stroke="#8E22E6" stroke-width="0.87" stroke-miterlimit="10"/>
<path d="M606.168 150.932C531.413 150.932 470.615 90.1172 470.615 15.3792C470.615 -59.3587 531.43 -120.174 606.168 -120.174C680.906 -120.174 741.721 -59.3587 741.721 15.3792C741.721 90.1172 680.906 150.932 606.168 150.932Z" stroke="#8E22E6" stroke-width="0.87" stroke-miterlimit="10"/>
<path d="M606.168 146.649C533.782 146.649 474.898 87.7658 474.898 15.3792C474.898 -57.0074 533.782 -115.891 606.168 -115.891C678.555 -115.891 737.438 -57.0074 737.438 15.3792C737.438 87.7658 678.555 146.649 606.168 146.649Z" stroke="#8E22E6" stroke-width="0.87" stroke-miterlimit="10"/>
<path d="M606.168 142.367C536.149 142.367 479.181 85.3977 479.181 15.3792C479.181 -54.6393 536.149 -111.608 606.168 -111.608C676.186 -111.608 733.155 -54.6393 733.155 15.3792C733.155 85.3977 676.186 142.367 606.168 142.367Z" stroke="#8E22E6" stroke-width="0.87" stroke-miterlimit="10"/>
<path d="M606.168 138.084C538.501 138.084 483.464 83.0465 483.464 15.3793C483.464 -52.288 538.501 -107.325 606.168 -107.325C673.836 -107.325 728.873 -52.288 728.873 15.3793C728.873 83.0465 673.836 138.084 606.168 138.084Z" stroke="#8E22E6" stroke-width="0.87" stroke-miterlimit="10"/>
<path d="M606.168 133.784C540.869 133.784 487.746 80.6616 487.746 15.3625C487.746 -49.9366 540.869 -103.059 606.168 -103.059C671.467 -103.059 724.59 -49.9366 724.59 15.3625C724.59 80.6616 671.467 133.784 606.168 133.784Z" stroke="#8E22E6" stroke-width="0.87" stroke-miterlimit="10"/>
<path d="M606.168 129.501C543.237 129.501 492.029 78.2934 492.029 15.3624C492.029 -47.5686 543.237 -98.7767 606.168 -98.7767C669.099 -98.7767 720.307 -47.5686 720.307 15.3624C720.307 78.2934 669.099 129.501 606.168 129.501Z" stroke="#8E22E6" stroke-width="0.87" stroke-miterlimit="10"/>
<path d="M606.168 125.219C545.588 125.219 496.312 75.9421 496.312 15.3624C496.312 -45.2173 545.588 -94.494 606.168 -94.494C666.748 -94.494 716.024 -45.2173 716.024 15.3624C716.024 75.9421 666.748 125.219 606.168 125.219Z" stroke="#8E22E6" stroke-width="0.87" stroke-miterlimit="10"/>
<path d="M606.168 120.936C547.957 120.936 500.595 73.5741 500.595 15.3625C500.595 -42.8491 547.957 -90.2112 606.168 -90.2112C664.38 -90.2112 711.742 -42.8491 711.742 15.3625C711.742 73.5741 664.38 120.936 606.168 120.936Z" stroke="#8E22E6" stroke-width="0.87" stroke-miterlimit="10"/>
<path d="M606.169 116.653C550.325 116.653 504.895 71.2227 504.895 15.3792C504.895 -40.4643 550.325 -85.8949 606.169 -85.8949C662.012 -85.8949 707.443 -40.4643 707.443 15.3792C707.443 71.2227 662.012 116.653 606.169 116.653Z" stroke="#8E22E6" stroke-width="0.87" stroke-miterlimit="10"/>
<path d="M606.168 112.371C552.693 112.371 509.177 68.8546 509.177 15.3792C509.177 -38.0962 552.693 -81.6122 606.168 -81.6122C659.643 -81.6122 703.159 -38.0962 703.159 15.3792C703.159 68.8546 659.643 112.371 606.168 112.371Z" stroke="#8E22E6" stroke-width="0.87" stroke-miterlimit="10"/>
<path d="M606.169 108.088C555.044 108.088 513.46 66.5033 513.46 15.3792C513.46 -35.7449 555.044 -77.3293 606.169 -77.3293C657.293 -77.3293 698.877 -35.7449 698.877 15.3792C698.877 66.5033 657.293 108.088 606.169 108.088Z" stroke="#8E22E6" stroke-width="0.87" stroke-miterlimit="10"/>
<path d="M606.168 103.788C557.412 103.788 517.742 64.1184 517.742 15.3624C517.742 -33.3936 557.412 -73.0635 606.168 -73.0635C654.924 -73.0635 694.594 -33.3936 694.594 15.3624C694.594 64.1184 654.924 103.788 606.168 103.788Z" stroke="#8E22E6" stroke-width="0.87" stroke-miterlimit="10"/>
<path d="M606.169 99.5056C559.781 99.5056 522.025 61.7672 522.025 15.3625C522.025 -31.0422 559.764 -68.7807 606.169 -68.7807C652.573 -68.7807 690.312 -31.0422 690.312 15.3625C690.312 61.7672 652.573 99.5056 606.169 99.5056Z" stroke="#8E22E6" stroke-width="0.87" stroke-miterlimit="10"/>
<path d="M606.168 95.2228C562.131 95.2228 526.308 59.399 526.308 15.3625C526.308 -28.6741 562.131 -64.498 606.168 -64.498C650.205 -64.498 686.028 -28.6741 686.028 15.3625C686.028 59.399 650.205 95.2228 606.168 95.2228Z" stroke="#8E22E6" stroke-width="0.87" stroke-miterlimit="10"/>
<path d="M606.168 90.9401C564.5 90.9401 530.591 57.0309 530.591 15.3624C530.591 -26.3061 564.5 -60.2152 606.168 -60.2152C647.837 -60.2152 681.746 -26.3061 681.746 15.3624C681.746 57.0309 647.837 90.9401 606.168 90.9401Z" stroke="#8E22E6" stroke-width="0.87" stroke-miterlimit="10"/>
<path d="M606.168 86.6574C566.868 86.6574 534.873 54.6797 534.873 15.3625C534.873 -23.9547 566.851 -55.9325 606.168 -55.9325C645.485 -55.9325 677.463 -23.9547 677.463 15.3625C677.463 54.6797 645.485 86.6574 606.168 86.6574Z" stroke="#8E22E6" stroke-width="0.87" stroke-miterlimit="10"/>
<path d="M606.168 82.3747C569.219 82.3747 539.173 52.3115 539.173 15.3792C539.173 -21.5531 569.236 -51.6161 606.168 -51.6161C643.101 -51.6161 673.164 -21.5531 673.164 15.3792C673.164 52.3115 643.101 82.3747 606.168 82.3747Z" stroke="#8E22E6" stroke-width="0.87" stroke-miterlimit="10"/>
<path d="M606.168 78.0919C571.587 78.0919 543.455 49.9602 543.455 15.3792C543.455 -19.2018 571.587 -47.3335 606.168 -47.3335C640.749 -47.3335 668.88 -19.2018 668.88 15.3792C668.88 49.9602 640.749 78.0919 606.168 78.0919Z" stroke="#8E22E6" stroke-width="0.87" stroke-miterlimit="10"/>
<path d="M606.168 73.8091C573.955 73.8091 547.738 47.592 547.738 15.3791C547.738 -16.8337 573.955 -43.0508 606.168 -43.0508C638.381 -43.0508 664.598 -16.8337 664.598 15.3791C664.598 47.592 638.381 73.8091 606.168 73.8091Z" stroke="#8E22E6" stroke-width="0.87" stroke-miterlimit="10"/>
<path d="M606.168 69.5096C576.306 69.5096 552.021 45.224 552.021 15.3625C552.021 -14.4991 576.306 -38.7848 606.168 -38.7848C636.029 -38.7848 660.315 -14.4991 660.315 15.3625C660.315 45.224 636.029 69.5096 606.168 69.5096Z" stroke="#8E22E6" stroke-width="0.87" stroke-miterlimit="10"/>
<path d="M606.168 65.2268C578.675 65.2268 556.304 42.8559 556.304 15.3624C556.304 -12.1311 578.675 -34.502 606.168 -34.502C633.662 -34.502 656.033 -12.1311 656.033 15.3624C656.033 42.8559 633.662 65.2268 606.168 65.2268Z" stroke="#8E22E6" stroke-width="0.87" stroke-miterlimit="10"/>
<path d="M606.168 60.9442C581.042 60.9442 560.586 40.5046 560.586 15.3625C560.586 -9.77971 581.025 -30.2193 606.168 -30.2193C631.31 -30.2193 651.749 -9.77971 651.749 15.3625C651.749 40.5046 631.31 60.9442 606.168 60.9442Z" stroke="#8E22E6" stroke-width="0.87" stroke-miterlimit="10"/>
<path d="M606.168 56.6614C583.394 56.6614 564.869 38.1365 564.869 15.3624C564.869 -7.41167 583.394 -25.9366 606.168 -25.9366C628.942 -25.9366 647.467 -7.41167 647.467 15.3624C647.467 38.1365 628.942 56.6614 606.168 56.6614Z" stroke="#8E22E6" stroke-width="0.87" stroke-miterlimit="10"/>
<path d="M606.169 52.3786C585.763 52.3786 569.152 35.7852 569.152 15.3624C569.152 -5.06036 585.746 -21.6539 606.169 -21.6539C626.591 -21.6539 643.185 -5.06036 643.185 15.3624C643.185 35.7852 626.591 52.3786 606.169 52.3786Z" stroke="#8E22E6" stroke-width="0.87" stroke-miterlimit="10"/>
<path d="M606.168 48.096C588.13 48.096 573.451 33.4171 573.451 15.3792C573.451 -2.65863 588.13 -17.3375 606.168 -17.3375C624.206 -17.3375 638.885 -2.65863 638.885 15.3792C638.885 33.4171 624.206 48.096 606.168 48.096Z" stroke="#8E22E6" stroke-width="0.87" stroke-miterlimit="10"/>
<path d="M606.168 43.8132C590.482 43.8132 577.734 31.049 577.734 15.3792C577.734 -0.290592 590.499 -13.0548 606.168 -13.0548C621.838 -13.0548 634.602 -0.290592 634.602 15.3792C634.602 31.049 621.838 43.8132 606.168 43.8132Z" stroke="#8E22E6" stroke-width="0.87" stroke-miterlimit="10"/>
<path d="M606.168 39.5305C592.849 39.5305 582.017 28.6977 582.017 15.3792C582.017 2.06078 592.849 -8.77203 606.168 -8.77203C619.486 -8.77203 630.319 2.06078 630.319 15.3792C630.319 28.6977 619.486 39.5305 606.168 39.5305Z" stroke="#8E22E6" stroke-width="0.87" stroke-miterlimit="10"/>
<path d="M606.168 35.2477C595.218 35.2477 586.3 26.3296 586.3 15.3792C586.3 4.42882 595.218 -4.48932 606.168 -4.48932C617.119 -4.48932 626.037 4.42882 626.037 15.3792C626.037 26.3296 617.119 35.2477 606.168 35.2477Z" stroke="#8E22E6" stroke-width="0.87" stroke-miterlimit="10"/>
<path d="M606.168 30.965C597.569 30.965 590.582 23.9783 590.582 15.3792C590.582 6.78013 597.569 -0.206604 606.168 -0.206604C614.767 -0.206604 621.754 6.78013 621.754 15.3792C621.754 23.9783 614.767 30.965 606.168 30.965Z" stroke="#8E22E6" stroke-width="0.87" stroke-miterlimit="10"/>
<path d="M606.168 26.6654C612.411 26.6654 617.471 21.6049 617.471 15.3624C617.471 9.1199 612.411 4.05933 606.168 4.05933C599.926 4.05933 594.865 9.1199 594.865 15.3624C594.865 21.6049 599.926 26.6654 606.168 26.6654Z" stroke="#8E22E6" stroke-width="0.87" stroke-miterlimit="10"/>
<path d="M606.168 22.3828C610.045 22.3828 613.188 19.2397 613.188 15.3625C613.188 11.4852 610.045 8.3421 606.168 8.3421C602.291 8.3421 599.147 11.4852 599.147 15.3625C599.147 19.2397 602.291 22.3828 606.168 22.3828Z" stroke="#8E22E6" stroke-width="0.87" stroke-miterlimit="10"/>
<path d="M606.168 496.204C871.73 496.204 1087.01 280.924 1087.01 15.3625C1087.01 -250.199 871.73 -465.48 606.168 -465.48C340.606 -465.48 125.326 -250.199 125.326 15.3625C125.326 280.924 340.606 496.204 606.168 496.204Z" fill="url(#paint3_radial_3813_19249)"/>
<circle cx="241.935" cy="341.32" r="178.027" fill="url(#paint4_radial_3813_19249)"/>
</g>
</g>
</g>
<g opacity="0.1">
<path d="M443.625 230.375V196.625C443.625 193.531 441.094 191 438 191H403.238C403.856 189.256 404.25 187.344 404.25 185.375V174.125C404.25 171.031 401.719 168.5 398.625 168.5H393V72.875C393 63.5938 385.406 56 376.125 56H229.875C220.594 56 213 63.5938 213 72.875V168.5H207.375C204.281 168.5 201.75 171.031 201.75 174.125V185.375C201.75 187.344 202.144 189.256 202.763 191H168C164.906 191 162.375 193.531 162.375 196.625V230.375C162.375 233.469 164.906 236 168 236H172.894L162.431 319.7C162.206 321.275 162.713 322.906 163.781 324.087C164.85 325.325 166.369 326 168 326H184.875C187.35 326 189.487 324.425 190.219 322.062L217.162 236H388.837L415.781 322.062C416.512 324.425 418.65 326 421.125 326H438C439.631 326 441.15 325.325 442.219 324.087C443.288 322.906 443.794 321.275 443.569 319.7L433.106 236H438C441.094 236 443.625 233.469 443.625 230.375ZM224.25 72.875C224.25 69.7812 226.781 67.25 229.875 67.25H376.125C379.219 67.25 381.75 69.7812 381.75 72.875V168.5H224.25V72.875ZM213 179.75H393V185.375C393 188.469 390.469 191 387.375 191H218.625C215.531 191 213 188.469 213 185.375V179.75ZM180.713 314.75H174.356L184.2 236H205.35L180.713 314.75ZM425.288 314.75L400.65 236H421.8L431.644 314.75H425.288ZM432.375 224.75H173.625V202.25H432.375V224.75Z" fill="#684A95"/>
<path d="M364.875 78.5H241.125C238.02 78.5 235.5 81.02 235.5 84.125V151.625C235.5 154.73 238.02 157.25 241.125 157.25H364.875C367.98 157.25 370.5 154.73 370.5 151.625V84.125C370.5 81.02 367.98 78.5 364.875 78.5ZM359.25 146H246.75V89.75H359.25V146Z" fill="#684A95"/>
</g>
<path d="M154.5 191C-12.499 54 154.5 -61 560.499 164.5" stroke="#684A95" stroke-opacity="0.8" stroke-width="4" stroke-miterlimit="10" stroke-dasharray="10 4"/>
<path d="M207.001 205.441C207.001 203.123 206.526 202.531 205.509 201.634L177.912 180.46C177.522 180.161 177.048 180 176.56 180C176.073 180 175.598 180.161 175.208 180.46L148.097 201.057C147.445 201.533 146.92 202.168 146.571 202.904C146.222 203.64 146.061 204.454 146.101 205.271H146.072L146.001 237.001V238.412C146 239.329 146.355 240.21 146.99 240.86C147.624 241.51 148.486 241.876 149.385 241.879H150.72L176.43 241.937L203.475 242C204.374 242.001 205.237 241.638 205.874 240.991C206.511 240.344 206.87 239.465 206.873 238.548L206.944 205.465L207.001 205.441Z" fill="url(#paint5_linear_3813_19249)"/>
<path d="M146.228 205.627L205.905 205.766L205.837 236.727C205.836 236.972 205.784 237.215 205.684 237.442C205.584 237.669 205.437 237.874 205.253 238.047C205.068 238.221 204.85 238.358 204.609 238.451C204.368 238.545 204.11 238.592 203.85 238.592L148.36 238.463C147.78 238.461 147.225 238.243 146.816 237.855C146.406 237.467 146.177 236.943 146.178 236.396L146.247 205.627L146.228 205.627Z" fill="#536DFE"/>
<path d="M146.228 205.627L205.905 205.766L205.839 235.736C205.838 235.974 205.786 236.209 205.686 236.428C205.586 236.647 205.44 236.847 205.255 237.014C205.071 237.182 204.852 237.315 204.611 237.405C204.37 237.495 204.113 237.541 203.852 237.541L148.363 237.412C147.783 237.41 147.227 237.199 146.818 236.824C146.409 236.448 146.179 235.94 146.181 235.411L146.247 205.627L146.228 205.627Z" fill="#684A95"/>
<path d="M146.067 206L146.001 236.232C146 236.842 146.118 237.446 146.35 238.01C146.581 238.574 146.921 239.087 147.351 239.519C147.78 239.951 148.29 240.294 148.851 240.529C149.412 240.763 150.014 240.885 150.622 240.886L201.001 241" fill="#E8E8E8"/>
<path d="M206.001 206L205.935 236.35C205.933 236.962 205.813 237.567 205.579 238.132C205.346 238.697 205.004 239.21 204.574 239.642C204.144 240.074 203.633 240.416 203.072 240.649C202.51 240.882 201.909 241.001 201.302 241L151.001 240.886" fill="white"/>
<path d="M174.662 181.455L147.975 201.668C147.334 202.131 146.817 202.753 146.473 203.476C146.129 204.2 145.968 205 146.006 205.804L206.001 206C206.001 203.724 205.524 203.127 204.533 202.266L177.345 181.464C176.959 181.165 176.489 181.002 176.005 181C175.522 180.998 175.05 181.158 174.662 181.455Z" fill="#536DFE"/>
<path d="M174.662 181.455L147.975 201.668C147.334 202.131 146.817 202.753 146.473 203.476C146.129 204.2 145.968 205 146.006 205.804L206.001 206C206.001 203.724 205.524 203.127 204.533 202.266L177.345 181.464C176.959 181.165 176.489 181.002 176.005 181C175.522 180.998 175.05 181.158 174.662 181.455Z" fill="#0083B8"/>
<path d="M199.001 188.75L191.948 183L174.9 205.452L165.739 198.065L160.001 205.65L173.334 216.24L176.641 219L199.001 188.75Z" fill="url(#paint6_linear_3813_19249)"/>
<path d="M199.001 188.144L192.379 183L174.829 206.186L165.083 198.616L160.001 205.325L173.059 215.457L176.408 218L199.001 188.144Z" fill="white"/>
<path d="M566.399 163.28L555.999 181.791L632.266 194.537L583.143 159.429L566.399 163.28Z" fill="#282161"/>
<path d="M578.925 143L632.269 194.537L566.401 163.28L578.925 143Z" fill="#684A95"/>
<path d="M558.804 192.669L632.055 194.101L563.674 169.178L558.804 192.669Z" fill="#684A95"/>
<defs>
<radialGradient id="paint0_radial_3813_19249" cx="0" cy="0" r="1" gradientUnits="userSpaceOnUse" gradientTransform="translate(-249.917 271.903) rotate(90) scale(951.083 1113.35)">
<stop stop-color="#250A63"/>
<stop offset="1" stop-color="#594BEC"/>
</radialGradient>
<linearGradient id="paint1_linear_3813_19249" x1="-1291.61" y1="18.7312" x2="417.132" y2="1597.61" gradientUnits="userSpaceOnUse">
<stop stop-color="white"/>
<stop offset="1" stop-color="#CECDFF"/>
</linearGradient>
<radialGradient id="paint2_radial_3813_19249" cx="0" cy="0" r="1" gradientUnits="userSpaceOnUse" gradientTransform="translate(-110.974 682.125) scale(480.842 480.842)">
<stop stop-color="#282161" stop-opacity="0.8"/>
<stop offset="0.22" stop-color="#342D69" stop-opacity="0.76"/>
<stop offset="0.45" stop-color="#575284" stop-opacity="0.62"/>
<stop offset="0.69" stop-color="#938FAF" stop-opacity="0.4"/>
<stop offset="0.94" stop-color="#E6E5EC" stop-opacity="0.09"/>
<stop offset="1" stop-color="white" stop-opacity="0"/>
</radialGradient>
<radialGradient id="paint3_radial_3813_19249" cx="0" cy="0" r="1" gradientUnits="userSpaceOnUse" gradientTransform="translate(606.168 15.3624) scale(480.842 480.842)">
<stop stop-color="#282161" stop-opacity="0.8"/>
<stop offset="0.22" stop-color="#342D69" stop-opacity="0.76"/>
<stop offset="0.45" stop-color="#575284" stop-opacity="0.62"/>
<stop offset="0.69" stop-color="#938FAF" stop-opacity="0.4"/>
<stop offset="0.94" stop-color="#E6E5EC" stop-opacity="0.09"/>
<stop offset="1" stop-color="white" stop-opacity="0"/>
</radialGradient>
<radialGradient id="paint4_radial_3813_19249" cx="0" cy="0" r="1" gradientUnits="userSpaceOnUse" gradientTransform="translate(241.935 341.32) rotate(90) scale(178.027)">
<stop offset="0.216346" stop-color="white" stop-opacity="0.9"/>
<stop offset="0.649038" stop-color="white" stop-opacity="0.1"/>
<stop offset="0.990385" stop-color="white"/>
</radialGradient>
<linearGradient id="paint5_linear_3813_19249" x1="33369.7" y1="21251.3" x2="33369.7" y2="13324" gradientUnits="userSpaceOnUse">
<stop stop-color="#808080" stop-opacity="0.25"/>
<stop offset="0.54" stop-color="#808080" stop-opacity="0.12"/>
<stop offset="1" stop-color="#808080" stop-opacity="0.1"/>
</linearGradient>
<linearGradient id="paint6_linear_3813_19249" x1="21547.7" y1="10708.7" x2="21554.1" y2="8014.86" gradientUnits="userSpaceOnUse">
<stop stop-opacity="0.12"/>
<stop offset="0.55" stop-opacity="0.09"/>
<stop offset="1" stop-opacity="0.02"/>
</linearGradient>
</defs>
</svg>
