<svg width="298" height="545" viewBox="0 0 298 545" fill="none" xmlns="http://www.w3.org/2000/svg">
<mask id="mask0_3824_20557" style="mask-type:alpha" maskUnits="userSpaceOnUse" x="1" y="1" width="283" height="541">
<rect opacity="0.6" x="1.5" y="1.5" width="282" height="540" rx="9.5" fill="#684A95" stroke="#282161"/>
</mask>
<g mask="url(#mask0_3824_20557)">
<g opacity="0.35" style="mix-blend-mode:hard-light">
<rect x="-1363.27" y="-695.18" width="2226.7" height="1902.17" fill="url(#paint0_radial_3824_20557)"/>
</g>
<g opacity="0.4">
<rect x="-1316.69" y="-37.085" width="2177.12" height="1893.15" fill="url(#paint1_linear_3824_20557)"/>
<g opacity="0.5">
<path d="M-110.975 1147.08C-376.169 1147.08 -591.935 931.336 -591.935 666.142C-591.935 400.949 -376.169 185.183 -110.975 185.183C154.219 185.183 369.968 400.932 369.968 666.142C369.968 931.353 154.219 1147.08 -110.975 1147.08Z" stroke="#8E22E6" stroke-width="0.87" stroke-miterlimit="10"/>
<path d="M-110.976 1142.8C-373.818 1142.8 -587.652 928.968 -587.652 666.142C-587.652 403.317 -373.801 189.465 -110.976 189.465C151.85 189.465 365.684 403.3 365.684 666.142C365.684 928.985 151.85 1142.8 -110.976 1142.8Z" stroke="#8E22E6" stroke-width="0.87" stroke-miterlimit="10"/>
<path d="M-110.976 1138.82C-371.618 1138.82 -583.672 926.768 -583.672 666.125C-583.672 405.483 -371.618 193.446 -110.976 193.446C149.667 193.446 361.721 405.5 361.721 666.142C361.721 926.784 149.667 1138.84 -110.976 1138.84V1138.82Z" stroke="#8E22E6" stroke-width="0.87" stroke-miterlimit="10"/>
<path d="M-110.975 1134.54C-369.249 1134.54 -579.389 924.416 -579.389 666.142C-579.389 407.868 -369.249 197.729 -110.975 197.729C147.299 197.729 357.422 407.851 357.422 666.142C357.422 924.433 147.299 1134.54 -110.975 1134.54Z" stroke="#8E22E6" stroke-width="0.87" stroke-miterlimit="10"/>
<path d="M-110.975 1130.56C-367.066 1130.56 -575.408 922.216 -575.408 666.126C-575.408 410.035 -367.066 201.692 -110.975 201.692C145.116 201.692 353.458 410.035 353.458 666.126C353.458 922.216 145.116 1130.56 -110.975 1130.56Z" stroke="#8E22E6" stroke-width="0.87" stroke-miterlimit="10"/>
<path d="M-110.976 1126.28C-364.698 1126.28 -571.126 919.848 -571.126 666.125C-571.126 412.403 -364.698 205.992 -110.976 205.992C142.747 205.992 349.175 412.42 349.175 666.142C349.175 919.865 142.747 1126.29 -110.976 1126.29V1126.28Z" stroke="#8E22E6" stroke-width="0.87" stroke-miterlimit="10"/>
<path d="M-110.976 1122.31C-362.515 1122.31 -567.146 917.682 -567.146 666.142C-567.146 414.603 -362.515 209.955 -110.976 209.955C140.564 209.955 345.194 414.586 345.194 666.126C345.194 917.665 140.564 1122.3 -110.976 1122.3V1122.31Z" stroke="#8E22E6" stroke-width="0.87" stroke-miterlimit="10"/>
<path d="M-110.975 1118.03C-360.146 1118.03 -562.862 915.314 -562.862 666.142C-562.862 416.971 -360.146 214.238 -110.975 214.238C138.196 214.238 340.912 416.954 340.912 666.126C340.912 915.297 138.196 1118.01 -110.975 1118.01V1118.03Z" stroke="#8E22E6" stroke-width="0.87" stroke-miterlimit="10"/>
<path d="M-110.976 1114.05C-357.964 1114.05 -558.899 913.113 -558.899 666.142C-558.899 419.171 -357.964 218.219 -110.976 218.219C136.012 218.219 336.931 419.154 336.931 666.142C336.931 913.13 135.995 1114.05 -110.976 1114.05Z" stroke="#8E22E6" stroke-width="0.87" stroke-miterlimit="10"/>
<path d="M-110.976 1109.77C-355.595 1109.77 -554.6 910.762 -554.6 666.142C-554.6 421.523 -355.595 222.501 -110.976 222.501C133.644 222.501 332.649 421.523 332.649 666.125C332.649 910.728 133.644 1109.75 -110.976 1109.75V1109.77Z" stroke="#8E22E6" stroke-width="0.87" stroke-miterlimit="10"/>
<path d="M-110.975 1105.79C-353.412 1105.79 -550.636 908.562 -550.636 666.126C-550.636 423.689 -353.395 226.482 -110.975 226.482C131.444 226.482 328.685 423.706 328.685 666.142C328.685 908.579 131.461 1105.8 -110.975 1105.8V1105.79Z" stroke="#8E22E6" stroke-width="0.87" stroke-miterlimit="10"/>
<path d="M-110.976 1101.5C-351.044 1101.5 -546.354 906.194 -546.354 666.142C-546.354 426.091 -351.044 230.764 -110.976 230.764C129.092 230.764 324.385 426.074 324.385 666.142C324.385 906.211 129.076 1101.5 -110.976 1101.5Z" stroke="#8E22E6" stroke-width="0.87" stroke-miterlimit="10"/>
<path d="M-110.976 1097.52C-348.844 1097.52 -542.373 903.994 -542.373 666.125C-542.373 428.257 -348.844 234.728 -110.976 234.728C126.892 234.728 320.422 428.257 320.422 666.125C320.422 903.994 126.892 1097.52 -110.976 1097.52Z" stroke="#8E22E6" stroke-width="0.87" stroke-miterlimit="10"/>
<path d="M-110.975 1093.24C-346.492 1093.24 -538.09 901.642 -538.09 666.125C-538.09 430.609 -346.492 239.011 -110.975 239.011C124.542 239.011 316.139 430.609 316.139 666.125C316.139 901.642 124.542 1093.24 -110.975 1093.24Z" stroke="#8E22E6" stroke-width="0.87" stroke-miterlimit="10"/>
<path d="M-110.975 1089.28C-344.292 1089.28 -534.109 899.459 -534.109 666.142C-534.109 432.826 -344.292 243.008 -110.975 243.008C122.341 243.008 312.159 432.826 312.159 666.142C312.159 899.459 122.341 1089.28 -110.975 1089.28Z" stroke="#8E22E6" stroke-width="0.87" stroke-miterlimit="10"/>
<path d="M-110.976 1084.99C-341.941 1084.99 -529.827 897.091 -529.827 666.142C-529.827 435.194 -341.924 247.291 -110.976 247.291C119.973 247.291 307.876 435.194 307.876 666.142C307.876 897.091 119.973 1084.99 -110.976 1084.99Z" stroke="#8E22E6" stroke-width="0.87" stroke-miterlimit="10"/>
<path d="M-110.975 1081.01C-339.741 1081.01 -525.863 894.908 -525.863 666.142C-525.863 437.377 -339.741 251.254 -110.975 251.254C117.79 251.254 303.896 437.377 303.896 666.142C303.896 894.908 117.79 1081.01 -110.975 1081.01Z" stroke="#8E22E6" stroke-width="0.87" stroke-miterlimit="10"/>
<path d="M-110.975 1076.73C-337.372 1076.73 -521.563 892.539 -521.563 666.142C-521.563 439.745 -337.372 255.554 -110.975 255.554C115.422 255.554 299.613 439.745 299.613 666.142C299.613 892.539 115.422 1076.73 -110.975 1076.73Z" stroke="#8E22E6" stroke-width="0.87" stroke-miterlimit="10"/>
<path d="M-110.975 1072.75C-335.189 1072.75 -517.6 890.339 -517.6 666.125C-517.6 441.912 -335.189 259.501 -110.975 259.501C113.239 259.501 295.65 441.912 295.65 666.125C295.65 890.339 113.239 1072.75 -110.975 1072.75Z" stroke="#8E22E6" stroke-width="0.87" stroke-miterlimit="10"/>
<path d="M-110.975 1068.47C-332.821 1068.47 -513.317 887.988 -513.317 666.142C-513.317 444.297 -332.838 263.8 -110.975 263.8C110.887 263.8 291.35 444.28 291.35 666.142C291.35 888.005 110.87 1068.47 -110.975 1068.47Z" stroke="#8E22E6" stroke-width="0.87" stroke-miterlimit="10"/>
<path d="M-110.975 1064.49C-330.638 1064.49 -509.337 885.788 -509.337 666.125C-509.337 446.463 -330.638 267.764 -110.975 267.764C108.687 267.764 287.386 446.463 287.386 666.125C287.386 885.788 108.687 1064.49 -110.975 1064.49Z" stroke="#8E22E6" stroke-width="0.87" stroke-miterlimit="10"/>
<path d="M-110.975 1060.2C-328.269 1060.2 -505.054 883.42 -505.054 666.126C-505.054 448.831 -328.269 272.047 -110.975 272.047C106.319 272.047 283.104 448.831 283.104 666.126C283.104 883.42 106.319 1060.2 -110.975 1060.2Z" stroke="#8E22E6" stroke-width="0.87" stroke-miterlimit="10"/>
<path d="M-110.976 1056.24C-326.087 1056.24 -501.074 881.253 -501.074 666.142C-501.074 451.031 -326.07 276.044 -110.976 276.044C104.118 276.044 279.122 451.048 279.122 666.142C279.122 881.236 104.135 1056.24 -110.976 1056.24Z" stroke="#8E22E6" stroke-width="0.87" stroke-miterlimit="10"/>
<path d="M-110.975 1051.96C-323.718 1051.96 -496.791 878.885 -496.791 666.142C-496.791 453.4 -323.718 280.327 -110.975 280.327C101.767 280.327 274.84 453.4 274.84 666.142C274.84 878.885 101.767 1051.96 -110.975 1051.96Z" stroke="#8E22E6" stroke-width="0.87" stroke-miterlimit="10"/>
<path d="M-110.975 1047.98C-321.535 1047.98 -492.827 876.685 -492.827 666.142C-492.827 455.6 -321.535 284.29 -110.975 284.29C99.5842 284.29 270.86 455.583 270.86 666.142C270.86 876.702 99.5674 1047.98 -110.975 1047.98Z" stroke="#8E22E6" stroke-width="0.87" stroke-miterlimit="10"/>
<path d="M-110.976 1043.69C-319.167 1043.69 -488.528 874.317 -488.528 666.142C-488.528 457.968 -319.15 288.59 -110.976 288.59C97.1986 288.59 266.576 457.968 266.576 666.142C266.576 874.317 97.1986 1043.69 -110.976 1043.69Z" stroke="#8E22E6" stroke-width="0.87" stroke-miterlimit="10"/>
<path d="M-110.976 1039.71C-316.967 1039.71 -484.564 872.133 -484.564 666.142C-484.564 460.151 -316.984 292.553 -110.976 292.553C95.0324 292.553 262.596 460.134 262.596 666.142C262.596 872.15 95.0156 1039.71 -110.976 1039.71Z" stroke="#8E22E6" stroke-width="0.87" stroke-miterlimit="10"/>
<path d="M-110.975 1035.43C-314.615 1035.43 -480.281 869.765 -480.281 666.142C-480.281 462.519 -314.615 296.836 -110.975 296.836C92.6646 296.836 258.314 462.502 258.314 666.142C258.314 869.782 92.6478 1035.43 -110.975 1035.43Z" stroke="#8E22E6" stroke-width="0.87" stroke-miterlimit="10"/>
<path d="M-110.975 1031.45C-312.415 1031.45 -476.301 867.565 -476.301 666.126C-476.301 464.686 -312.415 300.8 -110.975 300.8C90.4646 300.8 254.351 464.686 254.351 666.126C254.351 867.565 90.4646 1031.45 -110.975 1031.45Z" stroke="#8E22E6" stroke-width="0.87" stroke-miterlimit="10"/>
<path d="M-110.976 1027.17C-310.047 1027.17 -472.019 865.214 -472.019 666.125C-472.019 467.037 -310.047 305.083 -110.976 305.083C88.096 305.083 250.067 467.054 250.067 666.125C250.067 865.197 88.1128 1027.17 -110.976 1027.17Z" stroke="#8E22E6" stroke-width="0.87" stroke-miterlimit="10"/>
<path d="M-110.976 1023.2C-307.864 1023.2 -468.038 863.031 -468.038 666.142C-468.038 469.254 -307.864 309.08 -110.976 309.08C85.9126 309.08 246.087 469.254 246.087 666.142C246.087 863.031 85.9126 1023.2 -110.976 1023.2Z" stroke="#8E22E6" stroke-width="0.87" stroke-miterlimit="10"/>
<path d="M-110.975 1018.92C-305.495 1018.92 -463.755 860.662 -463.755 666.142C-463.755 471.622 -305.495 313.362 -110.975 313.362C83.545 313.362 241.805 471.622 241.805 666.142C241.805 860.662 83.545 1018.92 -110.975 1018.92Z" stroke="#8E22E6" stroke-width="0.87" stroke-miterlimit="10"/>
<path d="M-110.976 1014.94C-303.313 1014.94 -459.792 858.462 -459.792 666.142C-459.792 473.822 -303.313 317.326 -110.976 317.326C81.3609 317.326 237.823 473.806 237.823 666.142C237.823 858.479 81.3441 1014.94 -110.976 1014.94Z" stroke="#8E22E6" stroke-width="0.87" stroke-miterlimit="10"/>
<path d="M-110.976 1010.66C-300.944 1010.66 -455.492 856.111 -455.492 666.142C-455.492 476.174 -300.944 321.626 -110.976 321.626C78.9931 321.626 233.541 476.174 233.541 666.142C233.541 856.111 78.9931 1010.66 -110.976 1010.66Z" stroke="#8E22E6" stroke-width="0.87" stroke-miterlimit="10"/>
<path d="M-110.975 1006.68C-298.761 1006.68 -451.528 853.911 -451.528 666.142C-451.528 478.374 -298.761 325.589 -110.975 325.589C76.81 325.589 229.561 478.357 229.561 666.142C229.561 853.928 76.7932 1006.68 -110.975 1006.68Z" stroke="#8E22E6" stroke-width="0.87" stroke-miterlimit="10"/>
<path d="M-110.976 1002.4C-296.393 1002.4 -447.246 851.543 -447.246 666.142C-447.246 480.742 -296.393 329.872 -110.976 329.872C74.4413 329.872 225.278 480.725 225.278 666.142C225.278 851.559 74.4245 1002.4 -110.976 1002.4Z" stroke="#8E22E6" stroke-width="0.87" stroke-miterlimit="10"/>
<path d="M-110.976 998.415C-294.193 998.415 -443.266 849.359 -443.266 666.125C-443.266 482.892 -294.193 333.836 -110.976 333.836C72.2412 333.836 221.314 482.908 221.314 666.125C221.314 849.343 72.258 998.415 -110.976 998.415Z" stroke="#8E22E6" stroke-width="0.87" stroke-miterlimit="10"/>
<path d="M-110.975 994.132C-291.841 994.132 -438.982 846.991 -438.982 666.125C-438.982 485.26 -291.841 338.118 -110.975 338.118C69.8904 338.118 217.032 485.26 217.032 666.125C217.032 846.991 69.8904 994.132 -110.975 994.132Z" stroke="#8E22E6" stroke-width="0.87" stroke-miterlimit="10"/>
<path d="M-110.975 990.169C-289.641 990.169 -435.002 844.808 -435.002 666.142C-435.002 487.477 -289.641 342.116 -110.975 342.116C67.6902 342.116 213.051 487.477 213.051 666.142C213.051 844.808 67.6902 990.169 -110.975 990.169Z" stroke="#8E22E6" stroke-width="0.87" stroke-miterlimit="10"/>
<path d="M-110.976 985.869C-287.29 985.869 -430.72 842.44 -430.72 666.126C-430.72 489.811 -287.273 346.382 -110.976 346.382C65.3217 346.382 208.768 489.828 208.768 666.126C208.768 842.423 65.3385 985.869 -110.976 985.869Z" stroke="#8E22E6" stroke-width="0.87" stroke-miterlimit="10"/>
<path d="M-110.976 981.906C-285.09 981.906 -426.756 840.256 -426.756 666.142C-426.756 492.028 -285.107 350.362 -110.976 350.362C63.1553 350.362 204.788 492.011 204.788 666.142C204.788 840.273 63.1385 981.906 -110.976 981.906Z" stroke="#8E22E6" stroke-width="0.87" stroke-miterlimit="10"/>
<path d="M-110.975 977.623C-282.721 977.623 -422.456 837.888 -422.456 666.142C-422.456 494.396 -282.721 354.661 -110.975 354.661C60.7707 354.661 200.505 494.396 200.505 666.142C200.505 837.888 60.7707 977.623 -110.975 977.623Z" stroke="#8E22E6" stroke-width="0.87" stroke-miterlimit="10"/>
<path d="M-110.975 973.643C-280.538 973.643 -418.492 835.705 -418.492 666.142C-418.492 496.58 -280.538 358.625 -110.975 358.625C58.5876 358.625 196.525 496.58 196.525 666.142C196.525 835.705 58.5876 973.643 -110.975 973.643Z" stroke="#8E22E6" stroke-width="0.87" stroke-miterlimit="10"/>
<path d="M-110.976 969.36C-278.17 969.36 -414.21 833.337 -414.21 666.142C-414.21 498.948 -278.187 362.908 -110.976 362.908C56.2359 362.908 192.242 498.931 192.242 666.142C192.242 833.354 56.2191 969.36 -110.976 969.36Z" stroke="#8E22E6" stroke-width="0.87" stroke-miterlimit="10"/>
<path d="M-110.976 965.379C-275.987 965.379 -410.229 831.137 -410.229 666.125C-410.229 501.114 -275.987 366.871 -110.976 366.871C54.0357 366.871 188.278 501.114 188.278 666.125C188.278 831.137 54.0357 965.379 -110.976 965.379Z" stroke="#8E22E6" stroke-width="0.87" stroke-miterlimit="10"/>
<path d="M-110.975 961.097C-273.618 961.097 -405.946 828.769 -405.946 666.125C-405.946 503.482 -273.618 371.154 -110.975 371.154C51.6681 371.154 183.996 503.482 183.996 666.125C183.996 828.769 51.6681 961.097 -110.975 961.097Z" stroke="#8E22E6" stroke-width="0.87" stroke-miterlimit="10"/>
<path d="M-110.975 957.133C-271.435 957.133 -401.966 826.602 -401.966 666.142C-401.966 505.682 -271.435 375.151 -110.975 375.151C49.4848 375.151 180.016 505.682 180.016 666.142C180.016 826.602 49.4848 957.133 -110.975 957.133Z" stroke="#8E22E6" stroke-width="0.87" stroke-miterlimit="10"/>
<path d="M-110.976 952.834C-269.067 952.834 -397.684 824.217 -397.684 666.126C-397.684 508.034 -269.067 379.417 -110.976 379.417C47.1161 379.417 175.733 508.034 175.733 666.126C175.733 824.217 47.1161 952.834 -110.976 952.834Z" stroke="#8E22E6" stroke-width="0.87" stroke-miterlimit="10"/>
<path d="M-110.975 948.87C-266.884 948.87 -393.72 822.034 -393.72 666.142C-393.72 510.251 -266.884 383.398 -110.975 383.398C44.933 383.398 171.752 510.234 171.752 666.142C171.752 822.051 44.9162 948.87 -110.975 948.87Z" stroke="#8E22E6" stroke-width="0.87" stroke-miterlimit="10"/>
<path d="M-110.975 944.587C-264.515 944.587 -389.42 819.682 -389.42 666.142C-389.42 512.602 -264.498 387.697 -110.975 387.697C42.5484 387.697 167.47 512.619 167.47 666.142C167.47 819.666 42.5652 944.587 -110.975 944.587Z" stroke="#8E22E6" stroke-width="0.87" stroke-miterlimit="10"/>
<path d="M-110.976 940.607C-262.333 940.607 -385.457 817.482 -385.457 666.142C-385.457 514.802 -262.333 391.661 -110.976 391.661C40.3811 391.661 163.489 514.785 163.489 666.142C163.489 817.499 40.3643 940.607 -110.976 940.607Z" stroke="#8E22E6" stroke-width="0.87" stroke-miterlimit="10"/>
<path d="M-110.975 936.324C-259.964 936.324 -381.174 815.114 -381.174 666.142C-381.174 517.17 -259.964 395.944 -110.975 395.944C38.0135 395.944 159.207 517.154 159.207 666.142C159.207 815.131 37.9967 936.324 -110.975 936.324Z" stroke="#8E22E6" stroke-width="0.87" stroke-miterlimit="10"/>
<path d="M-110.975 932.344C-257.764 932.344 -377.193 812.914 -377.193 666.125C-377.193 519.337 -257.764 399.907 -110.975 399.907C35.8134 399.907 155.243 519.337 155.243 666.125C155.243 812.914 35.8134 932.344 -110.975 932.344Z" stroke="#8E22E6" stroke-width="0.87" stroke-miterlimit="10"/>
<path d="M-110.976 928.061C-255.413 928.061 -372.911 810.563 -372.911 666.126C-372.911 521.688 -255.413 404.19 -110.976 404.19C33.4616 404.19 150.96 521.688 150.96 666.126C150.96 810.563 33.4616 928.061 -110.976 928.061Z" stroke="#8E22E6" stroke-width="0.87" stroke-miterlimit="10"/>
<path d="M-110.976 924.097C-253.213 924.097 -368.931 808.379 -368.931 666.142C-368.931 523.905 -253.213 408.187 -110.976 408.187C31.2615 408.187 146.979 523.905 146.979 666.142C146.979 808.379 31.2615 924.097 -110.976 924.097Z" stroke="#8E22E6" stroke-width="0.87" stroke-miterlimit="10"/>
<path d="M-110.975 919.798C-250.844 919.798 -364.647 805.995 -364.647 666.125C-364.647 526.256 -250.844 412.453 -110.975 412.453C28.8938 412.453 142.697 526.256 142.697 666.125C142.697 805.995 28.8938 919.798 -110.975 919.798Z" stroke="#8E22E6" stroke-width="0.87" stroke-miterlimit="10"/>
<path d="M-110.975 915.834C-248.661 915.834 -360.684 803.828 -360.684 666.142C-360.684 528.457 -248.678 416.434 -110.975 416.434C26.7275 416.434 138.717 528.44 138.717 666.142C138.717 803.845 26.7107 915.834 -110.975 915.834Z" stroke="#8E22E6" stroke-width="0.87" stroke-miterlimit="10"/>
<path d="M-110.976 911.551C-246.293 911.551 -356.385 801.46 -356.385 666.142C-356.385 530.825 -246.293 420.733 -110.976 420.733C24.342 420.733 134.433 530.825 134.433 666.142C134.433 801.46 24.342 911.551 -110.976 911.551Z" stroke="#8E22E6" stroke-width="0.87" stroke-miterlimit="10"/>
<path d="M-110.975 907.571C-244.11 907.571 -352.421 799.26 -352.421 666.142C-352.421 533.025 -244.11 424.697 -110.975 424.697C22.1588 424.697 130.453 533.008 130.453 666.142C130.453 799.277 22.142 907.571 -110.975 907.571Z" stroke="#8E22E6" stroke-width="0.87" stroke-miterlimit="10"/>
<path d="M-110.975 903.288C-241.741 903.288 -348.138 796.908 -348.138 666.142C-348.138 535.376 -241.758 428.98 -110.975 428.98C19.808 428.98 126.171 535.359 126.171 666.142C126.171 796.925 19.7912 903.288 -110.975 903.288Z" stroke="#8E22E6" stroke-width="0.87" stroke-miterlimit="10"/>
<path d="M-110.976 899.308C-239.559 899.308 -344.158 794.708 -344.158 666.126C-344.158 537.543 -239.559 432.943 -110.976 432.943C17.6069 432.943 122.206 537.543 122.206 666.126C122.206 794.708 17.6069 899.308 -110.976 899.308Z" stroke="#8E22E6" stroke-width="0.87" stroke-miterlimit="10"/>
<path d="M-110.975 895.025C-237.19 895.025 -339.875 792.34 -339.875 666.125C-339.875 539.911 -237.19 437.226 -110.975 437.226C15.2393 437.226 117.924 539.911 117.924 666.125C117.924 792.34 15.2393 895.025 -110.975 895.025Z" stroke="#8E22E6" stroke-width="0.87" stroke-miterlimit="10"/>
<path d="M-110.975 891.045C-234.99 891.045 -335.895 790.157 -335.895 666.125C-335.895 542.094 -234.99 441.206 -110.975 441.206C13.0391 441.206 113.944 542.111 113.944 666.125C113.944 790.14 13.0559 891.045 -110.975 891.045Z" stroke="#8E22E6" stroke-width="0.87" stroke-miterlimit="10"/>
<path d="M-110.975 886.762C-232.638 886.762 -331.611 787.789 -331.611 666.125C-331.611 544.462 -232.638 445.489 -110.975 445.489C10.6883 445.489 109.661 544.462 109.661 666.125C109.661 787.789 10.6883 886.762 -110.975 886.762Z" stroke="#8E22E6" stroke-width="0.87" stroke-miterlimit="10"/>
<path d="M-110.976 882.798C-230.439 882.798 -327.632 785.605 -327.632 666.142C-327.632 546.679 -230.439 449.486 -110.976 449.486C8.48725 449.486 105.68 546.679 105.68 666.142C105.68 785.605 8.48725 882.798 -110.976 882.798Z" stroke="#8E22E6" stroke-width="0.87" stroke-miterlimit="10"/>
<path d="M-110.975 878.516C-228.087 878.516 -323.349 783.237 -323.349 666.142C-323.349 549.047 -228.07 453.769 -110.975 453.769C6.11962 453.769 101.398 549.047 101.398 666.142C101.398 783.237 6.11962 878.516 -110.975 878.516Z" stroke="#8E22E6" stroke-width="0.87" stroke-miterlimit="10"/>
<path d="M-110.975 874.535C4.12631 874.535 97.4345 781.227 97.4345 666.125C97.4345 551.024 4.12631 457.716 -110.975 457.716C-226.077 457.716 -319.385 551.024 -319.385 666.125C-319.385 781.227 -226.077 874.535 -110.975 874.535Z" stroke="#8E22E6" stroke-width="0.87" stroke-miterlimit="10"/>
<path d="M-110.976 870.252C-223.519 870.252 -315.103 778.686 -315.103 666.126C-315.103 553.565 -223.536 461.999 -110.976 461.999C1.58466 461.999 93.1512 553.565 93.1512 666.126C93.1512 778.686 1.58466 870.252 -110.976 870.252Z" stroke="#8E22E6" stroke-width="0.87" stroke-miterlimit="10"/>
<path d="M-110.975 865.97C-221.168 865.97 -310.803 776.318 -310.803 666.142C-310.803 555.967 -221.151 466.315 -110.975 466.315C-0.799933 466.315 88.852 555.967 88.852 666.142C88.852 776.318 -0.799933 865.97 -110.975 865.97Z" stroke="#8E22E6" stroke-width="0.87" stroke-miterlimit="10"/>
<path d="M-110.975 861.687C-218.799 861.687 -306.52 773.966 -306.52 666.142C-306.52 558.318 -218.799 470.598 -110.975 470.598C-3.1508 470.598 84.5697 558.318 84.5697 666.142C84.5697 773.966 -3.1508 861.687 -110.975 861.687Z" stroke="#8E22E6" stroke-width="0.87" stroke-miterlimit="10"/>
<path d="M-110.975 857.404C-216.431 857.404 -302.237 771.598 -302.237 666.142C-302.237 560.686 -216.431 474.88 -110.975 474.88C-5.51938 474.88 80.2865 560.686 80.2865 666.142C80.2865 771.598 -5.51938 857.404 -110.975 857.404Z" stroke="#8E22E6" stroke-width="0.87" stroke-miterlimit="10"/>
<path d="M-110.975 853.105C-214.08 853.105 -297.954 769.23 -297.954 666.125C-297.954 563.021 -214.08 479.146 -110.975 479.146C-7.8702 479.146 76.0042 563.021 76.0042 666.125C76.0042 769.23 -7.8702 853.105 -110.975 853.105Z" stroke="#8E22E6" stroke-width="0.87" stroke-miterlimit="10"/>
<path d="M-110.975 848.822C-211.712 848.822 -293.672 766.862 -293.672 666.126C-293.672 565.389 -211.712 483.429 -110.975 483.429C-10.2388 483.429 71.7209 565.389 71.7209 666.126C71.7209 766.862 -10.2388 848.822 -110.975 848.822Z" stroke="#8E22E6" stroke-width="0.87" stroke-miterlimit="10"/>
<path d="M-110.975 844.539C-209.344 844.539 -289.389 764.511 -289.389 666.125C-289.389 567.74 -209.36 487.712 -110.975 487.712C-12.5897 487.712 67.4387 567.74 67.4387 666.125C67.4387 764.511 -12.5897 844.539 -110.975 844.539Z" stroke="#8E22E6" stroke-width="0.87" stroke-miterlimit="10"/>
<path d="M-110.976 840.256C-206.993 840.256 -285.106 762.143 -285.106 666.125C-285.106 570.108 -206.993 491.995 -110.976 491.995C-14.9583 491.995 63.1554 570.108 63.1554 666.125C63.1554 762.143 -14.9583 840.256 -110.976 840.256Z" stroke="#8E22E6" stroke-width="0.87" stroke-miterlimit="10"/>
<path d="M-110.975 835.974C-204.624 835.974 -280.807 759.791 -280.807 666.142C-280.807 572.493 -204.624 496.311 -110.975 496.311C-17.3261 496.311 58.8562 572.493 58.8562 666.142C58.8562 759.791 -17.3261 835.974 -110.975 835.974Z" stroke="#8E22E6" stroke-width="0.87" stroke-miterlimit="10"/>
<path d="M-110.976 831.691C-202.257 831.691 -276.524 757.423 -276.524 666.142C-276.524 574.861 -202.257 500.594 -110.976 500.594C-19.6947 500.594 54.5729 574.861 54.5729 666.142C54.5729 757.423 -19.6947 831.691 -110.976 831.691Z" stroke="#8E22E6" stroke-width="0.87" stroke-miterlimit="10"/>
<path d="M-110.975 827.408C-199.905 827.408 -272.241 755.055 -272.241 666.142C-272.241 577.229 -199.888 504.876 -110.975 504.876C-22.0624 504.876 50.2907 577.229 50.2907 666.142C50.2907 755.055 -22.0624 827.408 -110.975 827.408Z" stroke="#8E22E6" stroke-width="0.87" stroke-miterlimit="10"/>
<path d="M-110.976 823.125C-197.537 823.125 -267.959 752.704 -267.959 666.142C-267.959 579.581 -197.537 509.159 -110.976 509.159C-24.4141 509.159 46.0075 579.581 46.0075 666.142C46.0075 752.704 -24.4141 823.125 -110.976 823.125Z" stroke="#8E22E6" stroke-width="0.87" stroke-miterlimit="10"/>
<path d="M-110.975 818.826C-195.169 818.826 -263.676 750.319 -263.676 666.125C-263.676 581.932 -195.169 513.425 -110.975 513.425C-26.7818 513.425 41.7252 581.932 41.7252 666.125C41.7252 750.319 -26.7818 818.826 -110.975 818.826Z" stroke="#8E22E6" stroke-width="0.87" stroke-miterlimit="10"/>
<path d="M-110.976 814.543C-192.818 814.543 -259.394 747.968 -259.394 666.126C-259.394 584.283 -192.818 517.708 -110.976 517.708C-29.1336 517.708 37.4419 584.283 37.4419 666.126C37.4419 747.968 -29.1336 814.543 -110.976 814.543Z" stroke="#8E22E6" stroke-width="0.87" stroke-miterlimit="10"/>
<path d="M-110.975 810.261C-190.449 810.261 -255.11 745.6 -255.11 666.126C-255.11 586.651 -190.449 521.99 -110.975 521.99C-31.5012 521.99 33.1597 586.651 33.1597 666.126C33.1597 745.6 -31.5012 810.261 -110.975 810.261Z" stroke="#8E22E6" stroke-width="0.87" stroke-miterlimit="10"/>
<path d="M-110.976 805.978C-188.082 805.978 -250.828 743.248 -250.828 666.126C-250.828 589.003 -188.099 526.273 -110.976 526.273C-33.8531 526.273 28.8764 589.003 28.8764 666.126C28.8764 743.248 -33.8531 805.978 -110.976 805.978Z" stroke="#8E22E6" stroke-width="0.87" stroke-miterlimit="10"/>
<path d="M-110.976 801.695C-185.73 801.695 -246.528 740.88 -246.528 666.142C-246.528 591.404 -185.714 530.59 -110.976 530.59C-36.2377 530.59 24.5772 591.404 24.5772 666.142C24.5772 740.88 -36.2377 801.695 -110.976 801.695Z" stroke="#8E22E6" stroke-width="0.87" stroke-miterlimit="10"/>
<path d="M-110.975 797.412C-183.362 797.412 -242.245 738.529 -242.245 666.142C-242.245 593.756 -183.362 534.872 -110.975 534.872C-38.5885 534.872 20.2949 593.756 20.2949 666.142C20.2949 738.529 -38.5885 797.412 -110.975 797.412Z" stroke="#8E22E6" stroke-width="0.87" stroke-miterlimit="10"/>
<path d="M-110.976 793.13C-180.994 793.13 -237.963 736.161 -237.963 666.142C-237.963 596.124 -180.994 539.155 -110.976 539.155C-40.9571 539.155 16.0117 596.124 16.0117 666.142C16.0117 736.161 -40.9571 793.13 -110.976 793.13Z" stroke="#8E22E6" stroke-width="0.87" stroke-miterlimit="10"/>
<path d="M-110.975 1146.97C154.586 1146.97 369.866 931.687 369.866 666.126C369.866 400.564 154.586 185.284 -110.975 185.284C-376.537 185.284 -591.817 400.564 -591.817 666.126C-591.817 931.687 -376.537 1146.97 -110.975 1146.97Z" fill="url(#paint2_radial_3824_20557)"/>
<path d="M606.167 480.322C340.974 480.322 125.208 264.573 125.208 -0.620828C125.208 -265.814 340.974 -481.58 606.167 -481.58C871.361 -481.58 1087.11 -265.831 1087.11 -0.620828C1087.11 264.59 871.361 480.322 606.167 480.322Z" stroke="#8E22E6" stroke-width="0.87" stroke-miterlimit="10"/>
<path d="M606.167 476.039C343.325 476.039 129.49 262.205 129.49 -0.620763C129.49 -263.446 343.341 -477.298 606.167 -477.298C868.993 -477.298 1082.83 -263.463 1082.83 -0.620763C1082.83 262.222 868.993 476.039 606.167 476.039Z" stroke="#8E22E6" stroke-width="0.87" stroke-miterlimit="10"/>
<path d="M606.167 472.059C345.525 472.059 133.471 260.005 133.471 -0.637552C133.471 -261.28 345.525 -473.317 606.167 -473.317C866.809 -473.317 1078.86 -261.263 1078.86 -0.620792C1078.86 260.021 866.809 472.076 606.167 472.076V472.059Z" stroke="#8E22E6" stroke-width="0.87" stroke-miterlimit="10"/>
<path d="M606.167 467.776C347.893 467.776 137.754 257.653 137.754 -0.620825C137.754 -258.895 347.893 -469.034 606.167 -469.034C864.442 -469.034 1074.56 -258.912 1074.56 -0.620825C1074.56 257.67 864.442 467.776 606.167 467.776Z" stroke="#8E22E6" stroke-width="0.87" stroke-miterlimit="10"/>
<path d="M606.168 463.796C350.077 463.796 141.734 255.453 141.734 -0.637533C141.734 -256.728 350.077 -465.071 606.168 -465.071C862.258 -465.071 1070.6 -256.728 1070.6 -0.637533C1070.6 255.453 862.258 463.796 606.168 463.796Z" stroke="#8E22E6" stroke-width="0.87" stroke-miterlimit="10"/>
<path d="M606.167 459.513C352.444 459.513 146.017 253.085 146.017 -0.637613C146.017 -254.36 352.444 -460.771 606.167 -460.771C859.89 -460.771 1066.32 -254.344 1066.32 -0.620853C1066.32 253.102 859.89 459.53 606.167 459.53V459.513Z" stroke="#8E22E6" stroke-width="0.87" stroke-miterlimit="10"/>
<path d="M606.167 455.549C354.628 455.549 149.997 250.919 149.997 -0.620771C149.997 -252.16 354.628 -456.808 606.167 -456.808C857.706 -456.808 1062.34 -252.177 1062.34 -0.637531C1062.34 250.902 857.706 455.533 606.167 455.533V455.549Z" stroke="#8E22E6" stroke-width="0.87" stroke-miterlimit="10"/>
<path d="M606.168 451.267C356.996 451.267 154.28 248.551 154.28 -0.620707C154.28 -249.792 356.996 -452.525 606.168 -452.525C855.339 -452.525 1058.05 -249.809 1058.05 -0.637518C1058.05 248.534 855.339 451.25 606.168 451.25V451.267Z" stroke="#8E22E6" stroke-width="0.87" stroke-miterlimit="10"/>
<path d="M606.167 447.286C359.179 447.286 158.243 246.35 158.243 -0.620768C158.243 -247.592 359.179 -448.544 606.167 -448.544C853.155 -448.544 1054.07 -247.609 1054.07 -0.620768C1054.07 246.367 853.138 447.286 606.167 447.286Z" stroke="#8E22E6" stroke-width="0.87" stroke-miterlimit="10"/>
<path d="M606.167 443.003C361.547 443.003 162.543 243.999 162.543 -0.620831C162.543 -245.241 361.547 -444.262 606.167 -444.262C850.787 -444.262 1049.79 -245.241 1049.79 -0.637591C1049.79 243.965 850.787 442.987 606.167 442.987V443.003Z" stroke="#8E22E6" stroke-width="0.87" stroke-miterlimit="10"/>
<path d="M606.167 439.023C363.731 439.023 166.507 241.799 166.507 -0.637538C166.507 -243.074 363.748 -440.281 606.167 -440.281C848.587 -440.281 1045.83 -243.057 1045.83 -0.620778C1045.83 241.816 848.604 439.04 606.167 439.04V439.023Z" stroke="#8E22E6" stroke-width="0.87" stroke-miterlimit="10"/>
<path d="M606.167 434.74C366.099 434.74 170.789 239.431 170.789 -0.620828C170.789 -240.672 366.099 -435.999 606.167 -435.999C846.235 -435.999 1041.53 -240.689 1041.53 -0.620828C1041.53 239.447 846.218 434.74 606.167 434.74Z" stroke="#8E22E6" stroke-width="0.87" stroke-miterlimit="10"/>
<path d="M606.167 430.76C368.299 430.76 174.77 237.231 174.77 -0.637601C174.77 -238.506 368.299 -432.035 606.167 -432.035C844.035 -432.035 1037.56 -238.506 1037.56 -0.637601C1037.56 237.231 844.035 430.76 606.167 430.76Z" stroke="#8E22E6" stroke-width="0.87" stroke-miterlimit="10"/>
<path d="M606.167 426.477C370.651 426.477 179.053 234.879 179.053 -0.637595C179.053 -236.154 370.651 -427.752 606.167 -427.752C841.684 -427.752 1033.28 -236.154 1033.28 -0.637595C1033.28 234.879 841.684 426.477 606.167 426.477Z" stroke="#8E22E6" stroke-width="0.87" stroke-miterlimit="10"/>
<path d="M606.167 422.513C372.851 422.513 183.033 232.696 183.033 -0.620784C183.033 -233.937 372.851 -423.755 606.167 -423.755C839.484 -423.755 1029.3 -233.937 1029.3 -0.620784C1029.3 232.696 839.484 422.513 606.167 422.513Z" stroke="#8E22E6" stroke-width="0.87" stroke-miterlimit="10"/>
<path d="M606.167 418.231C375.201 418.231 187.315 230.328 187.315 -0.620774C187.315 -231.569 375.218 -419.472 606.167 -419.472C837.115 -419.472 1025.02 -231.569 1025.02 -0.620774C1025.02 230.328 837.115 418.231 606.167 418.231Z" stroke="#8E22E6" stroke-width="0.87" stroke-miterlimit="10"/>
<path d="M606.167 414.25C377.402 414.25 191.279 228.144 191.279 -0.620756C191.279 -229.386 377.402 -415.509 606.167 -415.509C834.932 -415.509 1021.04 -229.386 1021.04 -0.620756C1021.04 228.144 834.932 414.25 606.167 414.25Z" stroke="#8E22E6" stroke-width="0.87" stroke-miterlimit="10"/>
<path d="M606.167 409.968C379.77 409.968 195.579 225.776 195.579 -0.620811C195.579 -227.018 379.77 -411.209 606.167 -411.209C832.565 -411.209 1016.76 -227.018 1016.76 -0.620811C1016.76 225.776 832.565 409.968 606.167 409.968Z" stroke="#8E22E6" stroke-width="0.87" stroke-miterlimit="10"/>
<path d="M606.168 405.987C381.954 405.987 199.543 223.576 199.543 -0.637577C199.543 -224.851 381.954 -407.262 606.168 -407.262C830.381 -407.262 1012.79 -224.851 1012.79 -0.637577C1012.79 223.576 830.381 405.987 606.168 405.987Z" stroke="#8E22E6" stroke-width="0.87" stroke-miterlimit="10"/>
<path d="M606.167 401.704C384.321 401.704 203.825 221.225 203.825 -0.620782C203.825 -222.466 384.305 -402.963 606.167 -402.963C828.03 -402.963 1008.49 -222.483 1008.49 -0.620782C1008.49 221.242 828.013 401.704 606.167 401.704Z" stroke="#8E22E6" stroke-width="0.87" stroke-miterlimit="10"/>
<path d="M606.167 397.724C386.505 397.724 207.806 219.025 207.806 -0.637577C207.806 -220.3 386.505 -398.999 606.167 -398.999C825.83 -398.999 1004.53 -220.3 1004.53 -0.637577C1004.53 219.025 825.83 397.724 606.167 397.724Z" stroke="#8E22E6" stroke-width="0.87" stroke-miterlimit="10"/>
<path d="M606.168 393.441C388.873 393.441 212.089 216.657 212.089 -0.637546C212.089 -217.932 388.873 -394.716 606.168 -394.716C823.462 -394.716 1000.25 -217.932 1000.25 -0.637546C1000.25 216.657 823.462 393.441 606.168 393.441Z" stroke="#8E22E6" stroke-width="0.87" stroke-miterlimit="10"/>
<path d="M606.167 389.478C391.056 389.478 216.068 214.49 216.068 -0.62079C216.068 -215.732 391.073 -390.719 606.167 -390.719C821.261 -390.719 996.265 -215.715 996.265 -0.62079C996.265 214.473 821.277 389.478 606.167 389.478Z" stroke="#8E22E6" stroke-width="0.87" stroke-miterlimit="10"/>
<path d="M606.167 385.195C393.424 385.195 220.352 212.122 220.352 -0.620787C220.352 -213.364 393.424 -386.436 606.167 -386.436C818.91 -386.436 991.983 -213.364 991.983 -0.620787C991.983 212.122 818.91 385.195 606.167 385.195Z" stroke="#8E22E6" stroke-width="0.87" stroke-miterlimit="10"/>
<path d="M606.167 381.215C395.608 381.215 224.315 209.922 224.315 -0.620765C224.315 -211.163 395.608 -382.473 606.167 -382.473C816.727 -382.473 988.002 -211.18 988.002 -0.620765C988.002 209.939 816.71 381.215 606.167 381.215Z" stroke="#8E22E6" stroke-width="0.87" stroke-miterlimit="10"/>
<path d="M606.167 376.932C397.975 376.932 228.614 207.554 228.614 -0.620819C228.614 -208.795 397.992 -378.173 606.167 -378.173C814.341 -378.173 983.719 -208.795 983.719 -0.620819C983.719 207.554 814.341 376.932 606.167 376.932Z" stroke="#8E22E6" stroke-width="0.87" stroke-miterlimit="10"/>
<path d="M606.167 372.951C400.176 372.951 232.578 205.37 232.578 -0.6208C232.578 -206.612 400.159 -374.21 606.167 -374.21C812.175 -374.21 979.739 -206.629 979.739 -0.6208C979.739 205.387 812.158 372.951 606.167 372.951Z" stroke="#8E22E6" stroke-width="0.87" stroke-miterlimit="10"/>
<path d="M606.167 368.669C402.528 368.669 236.861 203.002 236.861 -0.62079C236.861 -204.244 402.528 -369.927 606.167 -369.927C809.807 -369.927 975.457 -204.261 975.457 -0.62079C975.457 203.019 809.79 368.669 606.167 368.669Z" stroke="#8E22E6" stroke-width="0.87" stroke-miterlimit="10"/>
<path d="M606.167 364.688C404.728 364.688 240.842 200.802 240.842 -0.637558C240.842 -202.077 404.728 -365.963 606.167 -365.963C807.607 -365.963 971.493 -202.077 971.493 -0.637558C971.493 200.802 807.607 364.688 606.167 364.688Z" stroke="#8E22E6" stroke-width="0.87" stroke-miterlimit="10"/>
<path d="M606.167 360.405C407.095 360.405 245.124 198.451 245.124 -0.637583C245.124 -199.726 407.095 -361.681 606.167 -361.681C805.239 -361.681 967.21 -199.709 967.21 -0.637583C967.21 198.434 805.255 360.405 606.167 360.405Z" stroke="#8E22E6" stroke-width="0.87" stroke-miterlimit="10"/>
<path d="M606.167 356.442C409.279 356.442 249.104 196.267 249.104 -0.620802C249.104 -197.509 409.279 -357.683 606.167 -357.683C803.055 -357.683 963.229 -197.509 963.229 -0.620802C963.229 196.267 803.055 356.442 606.167 356.442Z" stroke="#8E22E6" stroke-width="0.87" stroke-miterlimit="10"/>
<path d="M606.167 352.159C411.647 352.159 253.388 193.899 253.388 -0.620796C253.388 -195.141 411.647 -353.401 606.167 -353.401C800.688 -353.401 958.947 -195.141 958.947 -0.620796C958.947 193.899 800.688 352.159 606.167 352.159Z" stroke="#8E22E6" stroke-width="0.87" stroke-miterlimit="10"/>
<path d="M606.167 348.179C413.83 348.179 257.351 191.699 257.351 -0.620778C257.351 -192.941 413.83 -349.437 606.167 -349.437C798.504 -349.437 954.966 -192.958 954.966 -0.620778C954.966 191.716 798.487 348.179 606.167 348.179Z" stroke="#8E22E6" stroke-width="0.87" stroke-miterlimit="10"/>
<path d="M606.167 343.896C416.198 343.896 261.65 189.348 261.65 -0.620824C261.65 -190.589 416.198 -345.137 606.167 -345.137C796.136 -345.137 950.684 -190.589 950.684 -0.620824C950.684 189.348 796.136 343.896 606.167 343.896Z" stroke="#8E22E6" stroke-width="0.87" stroke-miterlimit="10"/>
<path d="M606.167 339.916C418.382 339.916 265.614 187.148 265.614 -0.620728C265.614 -188.389 418.382 -341.174 606.167 -341.174C793.953 -341.174 946.703 -188.406 946.703 -0.620728C946.703 187.165 793.936 339.916 606.167 339.916Z" stroke="#8E22E6" stroke-width="0.87" stroke-miterlimit="10"/>
<path d="M606.167 335.633C420.75 335.633 269.896 184.78 269.896 -0.620801C269.896 -186.021 420.75 -336.891 606.167 -336.891C791.584 -336.891 942.42 -186.038 942.42 -0.620801C942.42 184.796 791.567 335.633 606.167 335.633Z" stroke="#8E22E6" stroke-width="0.87" stroke-miterlimit="10"/>
<path d="M606.167 331.652C422.95 331.652 273.877 182.596 273.877 -0.637569C273.877 -183.871 422.95 -332.927 606.167 -332.927C789.384 -332.927 938.457 -183.855 938.457 -0.637569C938.457 182.58 789.401 331.652 606.167 331.652Z" stroke="#8E22E6" stroke-width="0.87" stroke-miterlimit="10"/>
<path d="M606.167 327.369C425.301 327.369 278.16 180.228 278.16 -0.637615C278.16 -181.503 425.301 -328.645 606.167 -328.645C787.033 -328.645 934.174 -181.503 934.174 -0.637615C934.174 180.228 787.033 327.369 606.167 327.369Z" stroke="#8E22E6" stroke-width="0.87" stroke-miterlimit="10"/>
<path d="M606.167 323.406C427.502 323.406 282.141 178.045 282.141 -0.620813C282.141 -179.286 427.502 -324.647 606.167 -324.647C784.833 -324.647 930.194 -179.286 930.194 -0.620813C930.194 178.045 784.833 323.406 606.167 323.406Z" stroke="#8E22E6" stroke-width="0.87" stroke-miterlimit="10"/>
<path d="M606.167 480.204C871.729 480.204 1087.01 264.924 1087.01 -0.637543C1087.01 -266.199 871.729 -481.48 606.167 -481.48C340.605 -481.48 125.325 -266.199 125.325 -0.637543C125.325 264.924 340.605 480.204 606.167 480.204Z" fill="url(#paint3_radial_3824_20557)"/>
<circle cx="241.934" cy="325.32" r="178.027" fill="url(#paint4_radial_3824_20557)"/>
</g>
</g>
</g>
<path d="M49.5016 155C15.0001 130 -2.99927 -13 256.272 117.344" stroke="#684A95" stroke-opacity="0.8" stroke-width="4" stroke-miterlimit="10" stroke-dasharray="10 4"/>
<path d="M294.094 129.876L267.095 125.363L270.705 118.937L276.819 117.53L294.094 129.876Z" fill="#536DFE" stroke="#BDB0D0"/>
<path d="M262.473 115.273L256.999 125.016L297.142 131.725L271.286 113.246L262.473 115.273Z" fill="#282161"/>
<path d="M269.063 104.598L297.141 131.725L262.472 115.273L269.063 104.598Z" fill="#684A95"/>
<path d="M258.476 130.742L297.032 131.496L261.039 118.377L258.476 130.742Z" fill="#684A95"/>
<path d="M72.1248 166.429L72.0726 190.015C72.0723 190.142 72.0479 190.267 72.0005 190.384C71.9532 190.5 71.8845 190.605 71.7987 190.693C71.7127 190.781 71.6108 190.85 71.5004 190.896C71.39 190.943 71.272 190.967 71.1535 190.967L31.4925 190.875C31.2149 190.874 30.946 190.76 30.7461 190.554C30.5459 190.348 30.4319 190.065 30.4324 189.769L30.4842 166.332L72.1248 166.429Z" fill="#536DFE" stroke="#BDB0D0"/>
<path d="M29.9727 165.831L72.6273 165.93L72.574 190.016C72.5736 190.207 72.5365 190.396 72.465 190.572C72.3934 190.748 72.2886 190.908 72.1567 191.043C72.0249 191.178 71.8684 191.285 71.6964 191.357C71.5243 191.43 71.3399 191.467 71.1539 191.467L31.4925 191.374C31.078 191.374 30.6809 191.204 30.3885 190.902C30.0961 190.601 29.9324 190.192 29.9333 189.767L29.9862 165.831L29.9727 165.831Z" fill="#282161"/>
<path d="M27.0771 160.999L77.8565 161.117L77.8016 185.943C77.8011 186.139 77.7571 186.334 77.6719 186.516C77.5867 186.698 77.4621 186.862 77.3052 187.001C77.1482 187.14 76.962 187.25 76.7572 187.325C76.5524 187.4 76.3329 187.438 76.1114 187.438L28.8955 187.328C28.4021 187.326 27.9293 187.151 27.5811 186.84C27.2329 186.53 27.0378 186.109 27.0388 185.67L27.0933 160.999L27.0771 160.999Z" fill="#684A95"/>
<path d="M27.0809 160.99L27.0244 187.328C27.0234 187.859 27.1243 188.385 27.3215 188.877C27.5186 189.368 27.8082 189.815 28.1735 190.191C28.5389 190.568 28.9729 190.867 29.4509 191.071C29.9288 191.275 30.4413 191.381 30.9591 191.382L73.8531 191.482" fill="#E8E8E8"/>
<path d="M77.8651 161.106L77.8086 187.46C77.8076 187.991 77.7045 188.517 77.5054 189.008C77.3063 189.499 77.015 189.944 76.6481 190.319C76.2812 190.694 75.846 190.991 75.3672 191.193C74.8885 191.396 74.3756 191.499 73.8578 191.498L30.9639 191.399" fill="white"/>
<path d="M51.3906 140.385L28.7915 157.49C28.2486 157.882 27.8112 158.408 27.5198 159.02C27.2284 159.632 27.0925 160.31 27.1248 160.99L77.9284 161.156C77.9284 159.23 77.5248 158.724 76.6855 157.995L53.6626 140.393C53.3358 140.139 52.9376 140.002 52.5279 140C52.1183 139.999 51.7191 140.134 51.3906 140.385Z" fill="#0083B8"/>
<path d="M71.9112 146.216L66.3422 141.834L51.5841 161.586L43.3879 155.138L39.1143 160.853L50.095 169.485L52.9118 171.651L71.9112 146.216Z" fill="white"/>
<defs>
<radialGradient id="paint0_radial_3824_20557" cx="0" cy="0" r="1" gradientUnits="userSpaceOnUse" gradientTransform="translate(-249.917 255.903) rotate(90) scale(951.083 1113.35)">
<stop stop-color="#250A63"/>
<stop offset="1" stop-color="#594BEC"/>
</radialGradient>
<linearGradient id="paint1_linear_3824_20557" x1="-1291.61" y1="2.73121" x2="417.132" y2="1581.61" gradientUnits="userSpaceOnUse">
<stop stop-color="white"/>
<stop offset="1" stop-color="#CECDFF"/>
</linearGradient>
<radialGradient id="paint2_radial_3824_20557" cx="0" cy="0" r="1" gradientUnits="userSpaceOnUse" gradientTransform="translate(-110.975 666.125) scale(480.842 480.842)">
<stop stop-color="#282161" stop-opacity="0.8"/>
<stop offset="0.22" stop-color="#342D69" stop-opacity="0.76"/>
<stop offset="0.45" stop-color="#575284" stop-opacity="0.62"/>
<stop offset="0.69" stop-color="#938FAF" stop-opacity="0.4"/>
<stop offset="0.94" stop-color="#E6E5EC" stop-opacity="0.09"/>
<stop offset="1" stop-color="white" stop-opacity="0"/>
</radialGradient>
<radialGradient id="paint3_radial_3824_20557" cx="0" cy="0" r="1" gradientUnits="userSpaceOnUse" gradientTransform="translate(606.167 -0.637604) scale(480.842 480.842)">
<stop stop-color="#282161" stop-opacity="0.8"/>
<stop offset="0.22" stop-color="#342D69" stop-opacity="0.76"/>
<stop offset="0.45" stop-color="#575284" stop-opacity="0.62"/>
<stop offset="0.69" stop-color="#938FAF" stop-opacity="0.4"/>
<stop offset="0.94" stop-color="#E6E5EC" stop-opacity="0.09"/>
<stop offset="1" stop-color="white" stop-opacity="0"/>
</radialGradient>
<radialGradient id="paint4_radial_3824_20557" cx="0" cy="0" r="1" gradientUnits="userSpaceOnUse" gradientTransform="translate(241.934 325.32) rotate(90) scale(178.027)">
<stop offset="0.216346" stop-color="white" stop-opacity="0.9"/>
<stop offset="0.649038" stop-color="white" stop-opacity="0.1"/>
<stop offset="0.990385" stop-color="white"/>
</radialGradient>
</defs>
</svg>
