<svg width="97" height="23" viewBox="0 0 97 23" fill="none" xmlns="http://www.w3.org/2000/svg">
<path d="M14.2022 4.11889L13.658 4.66199C12.2277 3.17688 10.1905 2.30216 8.11958 2.27813C4.95544 2.19642 1.88761 4.19098 0.664334 7.10352C-1.13205 11.1743 0.85216 16.0766 4.96025 17.8021C7.9751 19.1382 11.722 18.4365 14.0674 16.1151C17.4242 12.9142 17.4627 7.40631 14.2022 4.11409V4.11889ZM5.29737 16.985C2.54741 15.9325 0.616174 13.1305 0.601725 10.1843C0.500588 6.03655 3.96815 2.51844 8.11958 2.4896C10.152 2.45115 12.1795 3.25378 13.6388 4.67641C13.5665 4.7485 13.4895 4.8254 13.422 4.89269C13.7736 5.24354 13.9903 5.72415 13.9903 6.25764C13.9903 7.32461 13.1235 8.18491 12.0591 8.18491C11.5245 8.18491 11.0429 7.96863 10.6913 7.61778C10.648 7.66104 10.6047 7.7043 10.5613 7.74755C9.28988 6.33934 6.93001 6.28167 5.55262 7.61298C3.11089 9.92475 4.77242 14.0004 8.1244 14.0965C11.0333 14.1494 12.7671 11.3954 12.088 8.94909C12.56 10.3861 12.2566 12.0731 11.1489 13.2026C8.41336 16.043 3.65992 14.1013 3.54915 10.1843C3.48654 5.96446 8.5145 3.87858 11.5679 6.74787L11.592 6.72384C11.1489 6.26244 10.6143 5.88276 10.0219 5.61842C8.21108 4.79176 5.95236 5.20028 4.52199 6.58446C1.82982 9.14615 2.69189 13.6303 6.08239 15.1106C8.03771 15.9997 10.4746 15.5576 12.0158 14.0581C13.5328 12.6258 14.0289 10.4823 13.5087 8.57421C13.8988 9.79979 13.8796 11.1551 13.3932 12.3567C12.2614 15.3028 8.81309 16.7783 5.8753 15.6104C3.66955 14.779 2.11878 12.5393 2.0947 10.1843C2.0032 6.83918 4.78206 4.00354 8.12921 3.9651C9.7763 3.92665 11.4186 4.57067 12.6081 5.71935L12.6322 5.69532C11.4715 4.48416 9.81483 3.76324 8.12921 3.7344C5.54299 3.6575 3.02901 5.28199 2.01764 7.66104C0.524669 11.0013 2.15249 15.0337 5.52373 16.4659C8.00881 17.581 11.1055 17.009 13.0512 15.0962C15.0932 13.1497 15.6615 10.1747 14.7465 7.65143C15.074 8.45406 15.2521 9.31436 15.2666 10.1843C15.3533 15.3365 10.0942 18.8786 5.31182 16.985H5.29737ZM9.52105 8.79049C9.17911 8.40119 8.66861 8.14646 8.1244 8.11763C6.14981 8.02631 5.13363 10.4006 6.45804 11.852C7.32012 12.8421 8.95757 12.8998 9.93041 11.9866C10.7347 11.2801 10.9659 10.1026 10.5998 9.12212C11.067 10.1026 10.9225 11.3666 10.1327 12.1933C9.0876 13.366 7.13229 13.4284 5.98125 12.3278C3.91998 10.3958 5.31182 6.97856 8.1244 6.88244C8.99128 6.8488 9.88225 7.17081 10.5372 7.786C10.3446 7.97825 10.1568 8.16569 10.0604 8.26181C10.0604 8.26181 10.0412 8.28104 10.0075 8.31468C10.0027 8.31948 9.99784 8.32429 9.99784 8.32429C9.90152 8.42041 9.71369 8.60786 9.52587 8.7953L9.52105 8.79049ZM8.1244 11.6454C6.69884 11.7511 5.94272 10.0016 6.88667 8.94909C7.51757 8.19933 8.76011 8.13685 9.49697 8.81452C9.22727 9.08367 8.95757 9.35281 8.95757 9.35281C9.86299 10.1074 9.28988 11.5685 8.1244 11.6454Z" fill="#282161"/>
<path d="M10.6923 7.61723C10.3407 7.26638 10.124 6.78576 10.124 6.25228C10.124 5.18531 10.9909 4.32501 12.0553 4.32501C12.5898 4.32501 13.0714 4.54128 13.423 4.89213" fill="#92278F"/>
<path d="M54.9385 17.004L57.1828 5.44514H59.35L57.1057 17.004H54.9385ZM57.3802 3.38329L57.8763 0.874472H60.2939L59.7979 3.38329H57.3802Z" fill="#282161"/>
<path d="M84.4818 7.18549C84.1591 7.18549 83.8509 7.1134 83.5619 6.96921C83.2729 6.82503 83.0466 6.57991 82.8684 6.23867C82.695 5.89743 82.6035 5.43604 82.6035 4.8545C82.6035 4.27295 82.6998 3.71063 82.8877 3.2204C83.0755 2.73017 83.3307 2.30242 83.6534 1.94676C83.9761 1.5863 84.3421 1.31235 84.7515 1.1201C85.1608 0.927854 85.5847 0.831731 86.0229 0.831731C86.4323 0.831731 86.7309 0.908629 86.9139 1.05762C87.0969 1.20661 87.2558 1.36522 87.3955 1.53824H87.4725L87.9879 0.937466H89.0378L88.1275 5.29186C88.0842 5.50333 88.0649 5.65713 88.0649 5.75325C88.0649 5.83976 88.0842 5.91666 88.1227 5.98875C88.1612 6.06084 88.2479 6.09929 88.3876 6.09929C88.508 6.09929 88.6139 6.07046 88.7006 6.01759C88.7873 5.96472 88.874 5.89263 88.9511 5.80612C89.0281 5.71961 89.1004 5.6331 89.1678 5.55139L89.5772 5.8734C89.476 6.03681 89.3412 6.21945 89.1726 6.4165C89.004 6.61836 88.7777 6.79138 88.4935 6.93557C88.2094 7.07975 87.8386 7.15184 87.3859 7.15184C87.0584 7.15184 86.8127 7.09417 86.649 6.98363C86.4804 6.87309 86.3986 6.66162 86.3986 6.35402V6.22425C86.3986 6.181 86.3986 6.13294 86.413 6.08488H86.3119C86.0566 6.42611 85.7917 6.69526 85.5172 6.89231C85.2427 7.08937 84.9008 7.18549 84.4914 7.18549H84.4818ZM85.2138 6.12332C85.4354 6.12332 85.6232 6.06565 85.7725 5.9503C85.9218 5.83495 86.0518 5.66193 86.1626 5.43124C86.2733 5.20054 86.3745 4.91698 86.4708 4.58535C86.5238 4.39791 86.5719 4.19124 86.6201 3.97016C86.6683 3.74908 86.7068 3.51838 86.7405 3.28288C86.7742 3.04738 86.7935 2.82629 86.7935 2.61001C86.7935 2.25916 86.7405 1.97079 86.6345 1.7449C86.5286 1.51901 86.336 1.40367 86.0614 1.40367C85.8062 1.40367 85.5798 1.49979 85.3824 1.69203C85.1849 1.88428 85.0164 2.14382 84.8815 2.46583C84.7467 2.79265 84.6407 3.15311 84.5733 3.54722C84.5059 3.94613 84.4721 4.34985 84.4721 4.75837C84.4721 5.29666 84.5348 5.65713 84.6648 5.83976C84.7948 6.0224 84.9778 6.11371 85.2186 6.11371L85.2138 6.12332Z" fill="#282161"/>
<path d="M90.4258 7.13738C90.1368 7.13738 89.9201 7.06048 89.7852 6.90669C89.6504 6.75289 89.5781 6.57987 89.5781 6.38281C89.5781 6.20979 89.6359 6.06561 89.7515 5.94065C89.8671 5.81569 90.0068 5.75321 90.1705 5.75321C90.315 5.75321 90.4595 5.77724 90.6088 5.8301C90.7532 5.88297 90.8833 5.907 90.994 5.907C91.0807 5.907 91.153 5.89259 91.2204 5.86375C91.283 5.83491 91.3504 5.77724 91.4179 5.69553C91.4853 5.61383 91.5623 5.50329 91.649 5.35429L92.5737 3.81632L92.8964 4.67662H92.6122L91.9573 5.94545C91.7839 6.28669 91.5912 6.57026 91.3745 6.79615C91.1578 7.02204 90.8399 7.13738 90.4306 7.13738H90.4258ZM94.3412 7.13738C93.9463 7.13738 93.6477 7.04126 93.4502 6.84901C93.248 6.65677 93.1035 6.34917 93.0072 5.93104L92.646 4.39306L92.5448 4.20081L92.1836 2.8695C92.0873 2.50424 91.991 2.23028 91.8802 2.05726C91.7742 1.88424 91.6394 1.76889 91.4756 1.71122C91.3119 1.65354 91.0952 1.63432 90.8207 1.63912C90.734 1.63912 90.6088 1.65354 90.4498 1.67757V1.11525L92.2077 0.908587H93.2576C93.3876 1.08641 93.4888 1.27866 93.5658 1.48533C93.6429 1.69199 93.7247 1.96594 93.8114 2.31679L93.9415 3.14826L94.0811 3.47028L94.4279 4.60934C94.5724 5.07073 94.6928 5.39274 94.7939 5.57538C94.8902 5.75801 94.9962 5.84933 95.107 5.84933C95.2707 5.84933 95.4152 5.79166 95.55 5.6715C95.6849 5.55135 95.8294 5.37832 95.9931 5.14763L96.3784 5.41677C96.2917 5.56096 96.1857 5.72918 96.0509 5.92142C95.916 6.11367 95.7668 6.30111 95.5934 6.48374C95.42 6.66638 95.2322 6.82018 95.0203 6.94514C94.8132 7.0701 94.582 7.13258 94.3364 7.13258L94.3412 7.13738ZM94.8565 2.51385L94.0474 3.79229L93.7392 2.97043H94.0089L94.5242 2.03323C94.6687 1.7785 94.818 1.55742 94.9673 1.37478C95.1166 1.19215 95.29 1.04797 95.4874 0.951842C95.6849 0.855719 95.9209 0.802851 96.1906 0.802851C96.4892 0.802851 96.7011 0.870137 96.8215 0.999904C96.9419 1.13448 96.9997 1.3123 96.9997 1.543C96.9997 1.68719 96.9419 1.83618 96.8215 1.98997C96.7011 2.14377 96.5325 2.22067 96.3061 2.22067C96.1328 2.22067 95.9979 2.18222 95.9016 2.10532C95.8053 2.02842 95.6849 1.98997 95.55 1.98997C95.4056 1.98997 95.2803 2.03323 95.1792 2.11974C95.0781 2.20625 94.9673 2.33121 94.8565 2.50424V2.51385Z" fill="#282161"/>
<path d="M24.4901 17.0044L21.9473 5.44553H24.3649L26.0361 14.4475L31.2182 5.44553H33.6358L26.6333 17.0044H24.4901Z" fill="#282161"/>
<path d="M45.9646 17.0041L47.7321 7.8051C47.8333 7.32449 47.9151 6.90635 47.9826 6.55069C48.05 6.19504 48.1174 5.82496 48.18 5.44528H50.222L49.9234 7.28604C50.1546 7.03612 50.4484 6.75736 50.7951 6.44015C51.1419 6.12775 51.5609 5.8538 52.0521 5.6183C52.5434 5.3876 53.1117 5.27225 53.757 5.27225C54.0412 5.27225 54.2868 5.29148 54.5035 5.33473C54.7202 5.37799 54.9177 5.43086 55.1007 5.49814L54.3012 7.58402C54.0701 7.50232 53.8774 7.44945 53.7281 7.42061C53.5788 7.39658 53.3621 7.38216 53.078 7.38216C52.4278 7.38216 51.8402 7.55038 51.3105 7.89162C50.7807 8.23285 50.3328 8.67983 49.9764 9.23254C49.62 9.78525 49.3744 10.3908 49.2396 11.0349L48.0933 16.9993H45.9502L45.9646 17.0041Z" fill="#282161"/>
<path d="M61.1877 17.0042L63.0804 7.23329H61.0625L61.4093 5.44539H63.4272L63.6006 4.49858C63.8847 2.94138 64.4434 1.80231 65.2814 1.08139C66.1193 0.360463 67.1211 0 68.2818 0C68.7778 0 69.2979 0.10093 69.8373 0.297983C70.3767 0.495036 70.8391 0.836274 71.2195 1.31689L69.8999 2.65781C69.4665 2.1772 68.8789 1.93689 68.1325 1.93689C67.4823 1.93689 66.9718 2.14355 66.601 2.55688C66.2253 2.97021 65.9412 3.68633 65.7437 4.69563L65.5944 5.44059H68.7585L68.4118 7.22848H65.2476L63.3549 16.9994H61.1877V17.0042Z" fill="#282161"/>
<path d="M67.3936 21.5079L68.2171 19.9652C68.4001 20.0997 68.5928 20.2151 68.7998 20.3112C69.0069 20.4121 69.2766 20.4602 69.6089 20.4602C70.105 20.4602 70.5288 20.2439 70.8804 19.8114C71.2271 19.3788 71.7039 18.6338 72.3011 17.5717L72.7249 16.8267L70.0087 5.44091H72.4022L74.2709 14.1689L79.1303 5.44091H81.5479L74.0253 18.2926C73.5437 19.1049 73.0909 19.8066 72.6671 20.4073C72.2433 21.0033 71.8002 21.4695 71.3331 21.8011C70.8659 22.1327 70.3265 22.2962 69.7149 22.2962C69.267 22.2962 68.8528 22.2433 68.4675 22.1327C68.0871 22.027 67.7307 21.8155 67.3936 21.4983V21.5079Z" fill="#282161"/>
<path d="M39.8855 5.0701C40.9835 5.0701 41.8601 5.29118 42.5247 5.72854C43.1893 6.1659 43.6709 6.75226 43.9695 7.48279C44.2681 8.21333 44.4174 9.02558 44.4174 9.91952C44.4174 10.5491 44.3403 11.2028 44.191 11.8852H35.5944C35.5751 11.967 35.5703 12.0439 35.5703 12.1111V12.2601C35.5703 13.1733 35.8256 13.9375 36.3312 14.5575C36.8369 15.1775 37.6075 15.4899 38.6381 15.4899C39.3846 15.4899 40.0251 15.3697 40.5549 15.1294C41.0847 14.8891 41.6193 14.5142 42.149 14L43.3723 15.2928C42.8233 15.8744 42.1394 16.3598 41.3159 16.7587C40.4923 17.1576 39.5532 17.3547 38.4888 17.3547C37.4245 17.3547 36.4709 17.1384 35.7244 16.7058C34.9779 16.2733 34.4144 15.6917 34.0292 14.9516C33.6487 14.2162 33.4561 13.38 33.4561 12.4524C33.4561 11.0922 33.7306 9.85224 34.2796 8.7372C34.8286 7.62217 35.5896 6.72823 36.5576 6.06497C37.5256 5.40172 38.6381 5.0701 39.8855 5.0701ZM35.8737 10.2415H42.3513C42.3513 10.1598 42.3513 10.0829 42.3657 10.0156C42.3754 9.94836 42.3802 9.87627 42.3802 9.79456C42.3802 8.94868 42.1635 8.24217 41.73 7.67023C41.2966 7.0983 40.632 6.80993 39.7362 6.80993C38.7874 6.80993 37.9831 7.11272 37.3185 7.7183C36.6539 8.32387 36.1723 9.16495 35.8737 10.2415Z" fill="#282161"/>
<path d="M26.7624 13.1829L24.4893 17.0039H26.6324L26.7624 13.1829Z" fill="#282161"/>
</svg>
